<svg width="100" height="100" viewBox="0 0 100 100" fill="none" xmlns="http://www.w3.org/2000/svg">
<g clip-path="url(#clip0_165_96)">
<path fill-rule="evenodd" clip-rule="evenodd" d="M59.2126 74.0679C63.6114 71.8683 68.7405 71.7308 73.2306 73.6555L74.1197 74.0679L85.1963 79.6062C87.2542 80.6354 88.0888 83.1379 87.0597 85.1962C86.104 87.1076 83.8776 87.9633 81.9164 87.2518L81.4692 87.0596L70.393 81.5212C68.2814 80.4656 65.8336 80.3601 63.6547 81.2046L62.9392 81.5212L57.453 84.2646C53.0542 86.4642 47.9251 86.6017 43.435 84.677L42.5459 84.2646L37.0596 81.5212C34.9481 80.4656 32.5002 80.3601 30.3215 81.2046L29.606 81.5212L18.5295 87.0596C16.4713 88.0887 13.9685 87.2546 12.9394 85.1962C11.9838 83.2849 12.6348 80.9906 14.3807 79.8486L14.8027 79.6062L25.8792 74.0679C30.2781 71.8683 35.4071 71.7308 39.8973 73.6555L40.7864 74.0679L46.2726 76.8112C48.3842 77.8669 50.832 77.9724 53.0108 77.1279L53.7263 76.8112L59.2126 74.0679ZM54.1663 8.33333C56.4676 8.33333 58.333 10.1988 58.333 12.5V17.9981L72.203 20.3097C76.2213 20.9795 79.1663 24.456 79.1663 28.5297V42.83L87.7434 45.6892C90.6338 46.6529 92.0838 49.8812 90.8834 52.6821L81.8476 73.7654L74.1197 69.9012C69.4276 67.555 63.9047 67.555 59.2126 69.9012L53.7263 72.6446C51.3801 73.8175 48.6188 73.8175 46.2726 72.6446L40.7864 69.9012C36.0942 67.555 30.5714 67.555 25.8792 69.9012L20.5853 72.5483L9.51233 53.1704C7.88166 50.3167 9.26937 46.6846 12.3874 45.6454L20.8329 42.83V28.5297C20.8329 24.456 23.778 20.9795 27.7963 20.3097L41.6662 17.9981V12.5C41.6662 10.1988 43.5317 8.33333 45.833 8.33333H54.1663ZM49.9997 25.0575L29.1662 28.5297V40.0524L47.3642 33.9864C49.0751 33.4162 50.9242 33.4162 52.6347 33.9864L70.833 40.0524V28.5297L49.9997 25.0575Z" fill="black"/>
</g>
<defs>
<clipPath id="clip0_165_96">
<rect width="100" height="100" fill="white"/>
</clipPath>
</defs>
</svg>
