<svg width="100" height="100" viewBox="0 0 100 100" fill="none" xmlns="http://www.w3.org/2000/svg">
<path fill-rule="evenodd" clip-rule="evenodd" d="M26.5651 81.5512C24.5752 80.84 22.9406 79.8446 21.5482 78.4521C17.4885 74.3925 16.805 68.275 16.6899 57.2921H83.31C83.195 68.275 82.5116 74.3925 78.4516 78.4521C77.0596 79.8442 75.4254 80.8396 73.4362 81.5508L77.7958 90.2704C78.5675 91.8137 77.9421 93.6908 76.3983 94.4629C74.8546 95.2346 72.9775 94.6092 72.2054 93.0654L67.1058 82.8658C62.7375 83.3337 57.1916 83.3337 50 83.3337C42.8091 83.3337 37.2634 83.3337 32.8954 82.8658L27.7957 93.0654C27.0239 94.6092 25.1468 95.2346 23.6031 94.4629C22.0594 93.6908 21.4337 91.8137 22.2056 90.2704L26.5651 81.5512ZM61.4583 66.6671C61.4583 64.9412 62.8575 63.5421 64.5833 63.5421H70.8333C72.5591 63.5421 73.9583 64.9412 73.9583 66.6671C73.9583 68.3929 72.5591 69.7921 70.8333 69.7921H64.5833C62.8575 69.7921 61.4583 68.3929 61.4583 66.6671ZM29.1666 63.5421C27.4408 63.5421 26.0416 64.9412 26.0416 66.6671C26.0416 68.3929 27.4408 69.7921 29.1666 69.7921H35.4166C37.1425 69.7921 38.5416 68.3929 38.5416 66.6671C38.5416 64.9412 37.1425 63.5421 35.4166 63.5421H29.1666Z" fill="black"/>
<path d="M83.3334 51.0421V41.6671C83.3334 25.9536 83.3334 18.0968 78.4517 13.2153C74.7897 9.5533 69.4534 8.63843 60.3822 8.40989C59.2567 8.38151 58.3334 9.2913 58.3334 10.4171C58.3334 15.0195 54.6026 18.7504 50.0001 18.7504C45.3976 18.7504 41.6667 15.0195 41.6667 10.4171C41.6667 9.2913 40.7436 8.38151 39.6182 8.40989C30.5467 8.63843 25.2103 9.5533 21.5483 13.2153C16.6667 18.0968 16.6667 25.9536 16.6667 41.6671V51.0421H83.3334Z" fill="black"/>
</svg>
