<svg width="100" height="100" viewBox="0 0 100 100" fill="none" xmlns="http://www.w3.org/2000/svg">
<path d="M80.9169 15.9583L51.0002 8.33333C50.6696 8.27315 50.3308 8.27315 50.0002 8.33333C49.724 8.29164 49.4431 8.29164 49.1669 8.33333L19.0836 15.9583C17.1761 16.4345 15.4984 17.5697 14.3471 19.1633C13.1957 20.7569 12.6449 22.7062 12.7919 24.6667L14.5419 47.625C15.2428 56.7322 18.425 65.4735 23.7432 72.8998C29.0613 80.3261 36.3122 86.1537 44.7086 89.75L48.3752 91.3333C48.8373 91.5259 49.333 91.625 49.8336 91.625C50.3342 91.625 50.8298 91.5259 51.2919 91.3333L54.9586 89.75C63.355 86.1537 70.6058 80.3261 75.924 72.8998C81.2421 65.4735 84.4244 56.7322 85.1252 47.625L86.8752 24.6667C87.0395 22.7505 86.5359 20.8366 85.4499 19.2494C84.3639 17.6621 82.7624 16.4994 80.9169 15.9583ZM65.4586 40.4583L48.7919 57.125C48.4045 57.5155 47.9437 57.8255 47.436 58.037C46.9282 58.2486 46.3836 58.3575 45.8336 58.3575C45.2835 58.3575 44.7389 58.2486 44.2312 58.037C43.7234 57.8255 43.2626 57.5155 42.8752 57.125L34.5419 48.7917C33.7573 48.0071 33.3165 46.9429 33.3165 45.8333C33.3165 44.7237 33.7573 43.6596 34.5419 42.875C35.3265 42.0904 36.3906 41.6496 37.5002 41.6496C38.6098 41.6496 39.674 42.0904 40.4586 42.875L45.8336 48.2917L59.5419 34.5417C60.3265 33.7571 61.3906 33.3163 62.5002 33.3163C63.6098 33.3163 64.674 33.7571 65.4586 34.5417C66.2432 35.3263 66.6839 36.3904 66.6839 37.5C66.6839 38.6096 66.2432 39.6737 65.4586 40.4583Z" fill="#231F20"/>
</svg>
