<svg width="103" height="75" viewBox="0 0 103 75" fill="none" xmlns="http://www.w3.org/2000/svg">
<path d="M19.6457 20.2946L35.6179 24.9057L53.1735 12.1557L27.9791 12.8779C27.7324 12.8914 27.4933 12.9679 27.2846 13.1001L19.3124 17.6835C19.0644 17.8209 18.8633 18.0295 18.7352 18.2824C18.6071 18.5353 18.5578 18.8208 18.5937 19.1021C18.6296 19.3833 18.749 19.6473 18.9366 19.8599C19.1241 20.0725 19.3712 20.2239 19.6457 20.2946Z" fill="black"/>
<path d="M98.1735 6.0168L80.6735 2.23902C79.2018 1.91951 77.6785 1.92034 76.2071 2.24146C74.7357 2.56258 73.3506 3.19648 72.1458 4.10013L19.2846 42.5168L6.5902 41.9612C5.86308 41.9365 5.14656 42.1408 4.54182 42.5453C3.93707 42.9498 3.47466 43.534 3.21988 44.2155C2.96509 44.897 2.93081 45.6413 3.12186 46.3433C3.31291 47.0453 3.71965 47.6695 4.28465 48.1279L16.6458 57.9335C16.8493 58.0976 17.0915 58.2068 17.3492 58.2506C17.607 58.2944 17.8717 58.2712 18.118 58.1835C21.6458 56.8223 34.7846 49.8501 50.3124 41.3223L53.4235 73.2946C53.4499 73.5715 53.5514 73.8359 53.7171 74.0594C53.8827 74.2828 54.1062 74.4568 54.3635 74.5626C54.6208 74.6684 54.902 74.7019 55.1769 74.6595C55.4519 74.6172 55.71 74.5006 55.9235 74.3223L62.868 68.5446C63.2481 68.2257 63.5038 67.7832 63.5902 67.2946L70.1735 30.3779C81.2846 24.2112 91.8958 18.239 99.368 14.0168C100.143 13.5948 100.77 12.9447 101.164 12.1545C101.558 11.3643 101.699 10.4722 101.568 9.59909C101.438 8.72596 101.042 7.914 100.435 7.27323C99.8279 6.63246 99.0384 6.19384 98.1735 6.0168Z" fill="black"/>
<path d="M99.3529 31.6471H93.1764C91.7206 31.6471 89.6871 32.4893 88.6576 33.5188L78.2835 43.893C77.254 44.9224 77.254 46.607 78.2835 47.6365L86.0106 55.3634C87.04 56.3929 88.7246 56.3929 89.7541 55.3634L100.128 44.9894C101.158 43.9599 102 41.9265 102 40.4706V34.2941C102 32.8382 100.809 31.6471 99.3529 31.6471ZM95.8235 40.4706C94.3615 40.4706 93.1764 39.2855 93.1764 37.8235C93.1764 36.3616 94.3615 35.1765 95.8235 35.1765C97.2854 35.1765 98.4706 36.3616 98.4706 37.8235C98.4706 39.2855 97.2854 40.4706 95.8235 40.4706ZM74.3885 46.3885L83.8291 55.8291C82.8292 56.3574 81.5554 56.2025 80.7165 55.3634L72.9894 47.6365C71.9599 46.607 71.9599 44.9224 72.9894 43.893L83.3635 33.5188C84.393 32.4893 86.4264 31.6471 87.8823 31.6471L74.3885 45.1408C74.0454 45.484 74.0454 46.0454 74.3885 46.3885Z" fill="black"/>
</svg>
