<svg width="78" height="63" viewBox="0 0 78 63" fill="none" xmlns="http://www.w3.org/2000/svg">
<path fill-rule="evenodd" clip-rule="evenodd" d="M47.714 48.7597C52.1128 46.5601 57.2419 46.4226 61.732 48.3473L62.6211 48.7597L73.6978 54.298C75.7557 55.3272 76.5903 57.8297 75.5611 59.888C74.6054 61.7993 72.3791 62.6551 70.4179 61.9436L69.9707 61.7514L58.8944 56.213C56.7828 55.1574 54.335 55.0518 52.1562 55.8963L51.4407 56.213L45.9544 58.9564C41.5556 61.156 36.4265 61.2934 31.9364 59.3688L31.0473 58.9564L25.561 56.213C23.4495 55.1574 21.0016 55.0518 18.8229 55.8963L18.1075 56.213L7.03097 61.7514C4.97272 62.7805 2.46989 61.9464 1.4408 59.888C0.485189 57.9767 1.13626 55.6824 2.88209 54.5404L3.30418 54.298L14.3807 48.7597C18.7795 46.5601 23.9086 46.4226 28.3987 48.3473L29.2878 48.7597L34.774 51.503C36.8856 52.5586 39.3334 52.6642 41.5123 51.8197L42.2278 51.503L47.714 48.7597Z" fill="black"/>
<path d="M54.625 9.53126C51.5569 6.49438 47.6588 4.43319 43.4216 3.60724C39.1844 2.7813 34.7976 3.22753 30.8135 4.88975C26.8294 6.55196 23.4262 9.35584 21.0324 12.9483C18.6386 16.5408 17.3613 20.7612 17.3613 25.0781C17.3613 29.3951 18.6386 33.6155 21.0324 37.208C23.4262 40.8004 26.8294 43.6043 30.8135 45.2665C34.7976 46.9287 39.1844 47.375 43.4216 46.549C47.6588 45.7231 51.5569 43.6619 54.625 40.625C56.68 38.5909 58.3114 36.1695 59.4247 33.501C60.5381 30.8324 61.1113 27.9696 61.1113 25.0781C61.1113 22.1866 60.5381 19.3238 59.4247 16.6553C58.3114 13.9867 56.68 11.5654 54.625 9.53126ZM26.5 12.5C28.1451 10.8755 30.0984 9.59631 32.245 8.73766C34.3917 7.879 36.6883 7.4582 39 7.50001C39.7228 7.52486 40.4431 7.59794 41.1562 7.71876V12.1563C41.1603 12.8278 41.0316 13.4935 40.7775 14.1152C40.5233 14.7368 40.1488 15.302 39.6754 15.7783C39.202 16.2546 38.6391 16.6326 38.019 16.8906C37.399 17.1485 36.734 17.2813 36.0625 17.2813H33.5C32.7954 17.2261 32.087 17.3173 31.4194 17.549C30.7518 17.7808 30.1393 18.1481 29.6204 18.628C29.1016 19.1078 28.6875 19.6898 28.4044 20.3373C28.1212 20.9848 27.9751 21.6839 27.9751 22.3906C27.9751 23.0974 28.1212 23.7964 28.4044 24.444C28.6875 25.0915 29.1016 25.6734 29.6204 26.1533C30.1393 26.6331 30.7518 27.0005 31.4194 27.2322C32.087 27.464 32.7954 27.5552 33.5 27.5H43.7187C44.7154 27.4875 45.7006 27.7136 46.5922 28.1593C47.4837 28.6051 48.2557 29.2577 48.8437 30.0625C50.3065 31.7113 51.861 33.2762 53.5 34.75C52.9372 35.7379 52.2665 36.6603 51.5 37.5C49.1916 39.8056 46.2768 41.4093 43.0937 42.125L36.0625 34.5625C34.6516 33.3066 32.8263 32.6165 30.9375 32.625H23.375C21.7307 29.3639 21.1479 25.67 21.7083 22.0611C22.2687 18.4521 23.9442 15.109 26.5 12.5Z" fill="black"/>
</svg>
