<svg width="100" height="100" viewBox="0 0 100 100" fill="none" xmlns="http://www.w3.org/2000/svg">
<path d="M48.2422 3.125V20.5078H50C52.9102 20.5078 54.4922 22.793 54.6484 25.1172C54.7266 26.2891 54.4141 27.3633 53.7305 28.125C53.0469 28.9062 51.9531 29.4922 50 29.4922C49.0234 29.4922 47.832 28.9453 46.9531 28.0469C46.0547 27.168 45.5078 25.9766 45.5078 25H41.9922C41.9922 27.1484 43.0078 29.082 44.4531 30.5469C45.918 31.9922 47.8516 33.0078 50 33.0078C52.7344 33.0078 54.9609 32.0312 56.3477 30.4688C57.7539 28.8867 58.3008 26.8359 58.1641 24.8828C57.9297 21.4648 55.5469 18.0117 51.7578 17.1836V3.125H48.2422ZM38.8867 30.5664L11.9805 48.2422H18.3672L40.8008 33.4961L38.8867 30.5664ZM61.1133 30.5664L59.1992 33.4961L81.6406 48.2422H88.0078L61.1133 30.5664ZM8.00781 51.7578V95.1172H91.9922V51.7578H8.00781ZM15.4297 56.25H18.9453V90.625H15.4297V56.25ZM24.8047 56.25H28.3203V90.625H24.8047V56.25ZM34.1797 56.25H37.6953V90.625H34.1797V56.25ZM43.5547 56.25H47.0703V90.625H43.5547V56.25ZM52.9297 56.25H56.4453V90.625H52.9297V56.25ZM62.3047 56.25H65.8203V90.625H62.3047V56.25ZM71.6797 56.25H75.1953V90.625H71.6797V56.25ZM81.0547 56.25H84.5703V90.625H81.0547V56.25Z" fill="black"/>
</svg>
