<svg width="100" height="100" viewBox="0 0 100 100" fill="none" xmlns="http://www.w3.org/2000/svg">
<g clip-path="url(#clip0_164_64)">
<path d="M95.8169 75.5811H86.3123C85.8414 75.5811 85.4583 75.198 85.4583 74.7271V72.739C85.4583 70.7753 84.286 69.0207 82.4717 68.2693C80.6573 67.5179 78.5878 67.9295 77.1992 69.3181L75.0998 71.4175V20.5179C75.0998 19.9896 74.8898 19.4829 74.5163 19.1094L55.9904 0.583455C55.6169 0.209949 55.1101 -1.14441e-05 54.5818 -1.14441e-05H4.18344C3.08324 -1.14441e-05 2.19141 0.891821 2.19141 1.99202V98.008C2.19141 99.1082 3.08324 100 4.18344 100H73.1077C74.2079 100 75.0998 99.1082 75.0998 98.008V96.4779L77.1992 98.5773C78.1271 99.505 79.3587 99.9966 80.6153 99.9966C81.2394 99.9966 81.8697 99.8753 82.4717 99.6259C84.2858 98.8745 85.4583 97.1199 85.4583 95.1562V93.1681C85.4583 92.6972 85.8414 92.3141 86.3123 92.3141H95.8169C96.9171 92.3141 97.8089 91.4223 97.8089 90.3221V77.5731C97.8089 76.4729 96.9171 75.5811 95.8169 75.5811ZM56.5739 6.80118L68.2986 18.5259H56.5739V6.80118ZM71.1157 96.0159H6.17547V3.98405H52.5898V20.5179C52.5898 21.6181 53.4816 22.5099 54.5818 22.5099H71.1157V75.4016L63.9781 82.539C63.698 82.8193 63.5097 83.1743 63.4332 83.5572C63.4077 83.6848 63.3946 83.8155 63.3946 83.9476C63.3946 84.4759 63.6046 84.9827 63.9781 85.3562L71.1157 92.4938V96.0159ZM93.8249 88.3301H86.3123C83.6446 88.3301 81.4743 90.5004 81.4743 93.1681V95.1562C81.4743 95.6528 81.144 95.8635 80.9472 95.9452C80.75 96.0267 80.3673 96.1111 80.0165 95.76L68.204 83.9476L80.0163 72.1353C80.3675 71.7843 80.7502 71.8687 80.947 71.9502C81.1438 72.0317 81.4741 72.2426 81.4741 72.739V74.7271C81.4741 77.3948 83.6444 79.5651 86.3121 79.5651H93.8249V88.3301Z" fill="black"/>
<path d="M71.1157 96.0159H6.17547V3.98405H52.5898V20.5179C52.5898 21.6181 53.4816 22.5099 54.5818 22.5099H71.1157V75.4016L63.9781 82.539C63.698 82.8193 63.5097 83.1743 63.4332 83.5572C63.4077 83.6848 63.3946 83.8155 63.3946 83.9476C63.3946 84.4759 63.6046 84.9827 63.9781 85.3562L71.1157 92.4938V96.0159Z" fill="black"/>
<path d="M16.2352 34.6614H49.2033C50.3035 34.6614 51.1954 33.7695 51.1954 32.6693C51.1954 31.5691 50.3035 30.6773 49.2033 30.6773H16.2352C15.135 30.6773 14.2432 31.5691 14.2432 32.6693C14.2432 33.7695 15.135 34.6614 16.2352 34.6614Z" fill="white"/>
<path d="M61.0559 43.8247H16.2352C15.135 43.8247 14.2432 44.7165 14.2432 45.8167C14.2432 46.9169 15.135 47.8088 16.2352 47.8088H61.0559C62.1561 47.8088 63.0479 46.9169 63.0479 45.8167C63.0479 44.7165 62.1561 43.8247 61.0559 43.8247Z" fill="white"/>
<path d="M61.0559 56.9721H16.2352C15.135 56.9721 14.2432 57.8639 14.2432 58.9641C14.2432 60.0643 15.135 60.9562 16.2352 60.9562H61.0559C62.1561 60.9562 63.0479 60.0643 63.0479 58.9641C63.0479 57.8639 62.1561 56.9721 61.0559 56.9721Z" fill="white"/>
<path d="M61.0559 70.1195H16.2352C15.135 70.1195 14.2432 71.0114 14.2432 72.1116C14.2432 73.2118 15.135 74.1036 16.2352 74.1036H61.0559C62.1561 74.1036 63.0479 73.2118 63.0479 72.1116C63.0479 71.0114 62.1561 70.1195 61.0559 70.1195Z" fill="white"/>
<path d="M61.0561 30.6773H56.6737C55.5735 30.6773 54.6816 31.5691 54.6816 32.6693C54.6816 33.7695 55.5735 34.6614 56.6737 34.6614H61.0561C62.1563 34.6614 63.0482 33.7695 63.0482 32.6693C63.0482 31.5691 62.1563 30.6773 61.0561 30.6773Z" fill="white"/>
</g>
<defs>
<clipPath id="clip0_164_64">
<rect width="100" height="100" fill="white"/>
</clipPath>
</defs>
</svg>
