<svg width="100" height="100" viewBox="0 0 100 100" fill="none" xmlns="http://www.w3.org/2000/svg">
<g clip-path="url(#clip0_165_88)">
<path d="M27.0347 43.1602V55.3529H30.3211V47.1662C30.3211 46.2471 31.0687 45.4995 31.9878 45.4995H38.4171C39.3361 45.4995 40.0837 46.2471 40.0837 47.1662V55.3529H43.3704V43.1602L35.2025 35.7276L27.0347 43.1602Z" fill="black"/>
<path d="M93.3214 31.4064C89.6743 27.325 85.131 24.6876 81.7464 24.6876C78.2317 24.6876 71.7483 24.685 68.2543 24.6836V21.819C68.2543 17.4617 64.7093 13.9169 60.3521 13.9169H7.9019C3.54476 13.9167 0 17.4617 0 21.819V68.2107C0 72.5679 3.54476 76.1129 7.9019 76.1129H8.46381C9.44952 81.7686 14.3907 86.0833 20.3243 86.0833C26.2579 86.0833 31.1993 81.7686 32.185 76.1129H60.3521C62.4991 76.1129 64.4479 75.2509 65.8733 73.8567C67.049 75.0067 68.5805 75.7929 70.2857 76.0336C71.2386 81.7286 76.1991 86.0833 82.1602 86.0833C88.1807 86.0833 93.1831 81.6429 94.065 75.865C97.4736 74.9886 100 71.8893 100 68.2107V48.32C100 42.2329 97.6281 36.2262 93.3214 31.4064ZM20.324 81.3214C16.3095 81.3214 13.0433 78.0552 13.0433 74.0402C13.0433 70.0257 16.3095 66.7595 20.324 66.7595C24.3388 66.7595 27.605 70.0257 27.605 74.0402C27.605 78.0552 24.3388 81.3214 20.324 81.3214ZM50.3729 43.4348C49.5669 44.1683 48.5026 44.5726 47.3762 44.5726C46.9826 44.5726 46.5976 44.5205 46.2279 44.425V57.0193C46.2279 57.6767 45.6948 58.2098 45.0374 58.2098H38.4174H31.9881H25.3683C24.711 58.2098 24.1779 57.6767 24.1779 57.0193V44.4248C23.8079 44.5202 23.4231 44.5726 23.0295 44.5726C21.9033 44.5726 20.839 44.1686 20.0329 43.4348C19.1957 42.6729 18.7345 41.651 18.7345 40.5569C18.7345 39.4629 19.1957 38.441 20.0329 37.679L32.2062 26.6005C33.0126 25.8669 34.0767 25.4631 35.2031 25.4631C36.3293 25.4631 37.3936 25.8669 38.1995 26.6005L50.3731 37.679C51.2102 38.4407 51.6714 39.4629 51.6714 40.5569C51.6714 41.651 51.21 42.6731 50.3729 43.4348ZM82.16 81.3214C78.1455 81.3214 74.8793 78.0552 74.8793 74.0402C74.8793 70.0257 78.1452 66.7595 82.16 66.7595C86.1748 66.7595 89.4412 70.0257 89.4412 74.0402C89.4412 78.0552 86.175 81.3214 82.16 81.3214ZM95.2381 68.2107C95.2381 69.3257 94.6524 70.3043 93.7743 70.8617C92.376 65.7593 87.7005 61.9976 82.1602 61.9976C76.4955 61.9976 71.7348 65.9302 70.4574 71.2079C69.1824 70.8083 68.2545 69.6159 68.2545 68.2107V29.4457C70.4781 29.4467 73.9107 29.4481 77.0193 29.4488V44.041C77.0193 48.3981 80.564 51.9431 84.9212 51.9431H95.2381V68.2107Z" fill="black"/>
</g>
<defs>
<clipPath id="clip0_165_88">
<rect width="100" height="100" fill="white"/>
</clipPath>
</defs>
</svg>
