<svg width="100" height="100" viewBox="0 0 100 100" fill="none" xmlns="http://www.w3.org/2000/svg">
<g clip-path="url(#clip0_164_12)">
<path d="M99.9987 50.9858C99.9987 50.9671 99.9977 50.9484 99.9975 50.9297C99.97 49.6765 98.9637 48.6779 97.6954 48.6779H97.0909L87.7557 30.6295C87.3618 29.8674 86.5763 29.3928 85.7091 29.3926L69.7713 29.3893L70.3794 24.5696C70.5528 22.6435 69.9574 20.8249 68.7023 19.4484C67.4495 18.0747 65.7005 17.3181 63.777 17.3181H14.3117C13.068 17.3181 12.0114 18.2804 11.8929 19.5211L11.397 23.492H39.58C41.4099 23.492 42.8546 24.9755 42.8068 26.8055C42.7588 28.6355 41.2365 30.119 39.4065 30.119H30.0059C30.0076 30.1237 30.0092 30.1284 30.0109 30.1329H2.40545C1.1113 30.1329 0.034662 31.1819 0.000817305 32.476C-0.0330274 33.7702 0.988468 34.8191 2.28261 34.8191H38.8292C40.5257 35.0804 41.7931 36.5476 41.7465 38.3238C41.6954 40.2745 40.0805 41.8562 38.1332 41.8725H12.9371C11.6299 41.8725 10.5426 42.9321 10.5083 44.2393C10.474 45.5465 11.5059 46.6061 12.8131 46.6061H37.7123C39.4337 46.8458 40.7264 48.3248 40.6796 50.1183C40.6282 52.079 38.997 53.6685 37.0364 53.6685H8.47123V53.6711H6.07109C4.76393 53.6711 3.67664 54.7307 3.64232 56.0379C3.608 57.345 4.63967 58.4046 5.94707 58.4046H8.01846L7.20832 66.8819C7.0346 68.8077 7.63008 70.6263 8.88541 72.0029C10.1379 73.3768 11.8872 74.1332 13.8106 74.1332H15.5975C16.4491 79.0026 20.6619 82.6817 25.8151 82.6817C30.9683 82.6817 35.3737 79.0026 36.4797 74.1334H58.7791C60.5821 74.1334 62.2891 73.444 63.6277 72.3153C64.8518 73.4901 66.4744 74.1334 68.2462 74.1334H68.613C69.4644 79.0026 73.6772 82.6817 78.8306 82.6817C83.9837 82.6817 88.3892 79.0026 89.4952 74.1334H90.9671C94.8015 74.1334 98.2021 71.0161 98.5476 67.1846L99.9899 51.2075C99.9918 51.186 99.9909 51.1647 99.9923 51.1429C99.9947 51.11 99.9992 51.0778 100 51.0447C100.001 51.0248 99.9987 51.0056 99.9987 50.9858ZM25.9391 77.9482C22.6765 77.9482 20.0916 75.2941 20.177 72.0315C20.2624 68.7687 22.9863 66.1143 26.2489 66.1143C29.5115 66.1143 32.0963 68.7687 32.0108 72.0315C31.9254 75.2941 29.2017 77.9482 25.9391 77.9482ZM78.9546 77.9482C75.692 77.9482 73.1073 75.2941 73.1925 72.0315C73.2779 68.7687 76.0018 66.1143 79.2644 66.1143C82.527 66.1143 85.112 68.7687 85.0263 72.0315C84.9409 75.2941 82.2172 77.9482 78.9546 77.9482ZM93.8321 66.8819C93.709 68.2468 92.4539 69.3999 91.0914 69.3999H89.4993C88.4451 64.7958 84.353 61.3808 79.3882 61.3808C74.4234 61.3808 70.1526 64.7958 68.8575 69.3999H68.3702C67.7686 69.3999 67.2318 69.1743 66.8581 68.7644C66.482 68.3521 66.305 67.791 66.3596 67.1844L69.3439 34.1228L76.1978 34.1242L75.1115 46.1597C74.9375 48.0855 75.5327 49.9041 76.7878 51.2807C78.0403 52.6548 79.7901 53.4117 81.7138 53.4117H95.0477L93.8321 66.8819Z" fill="black"/>
</g>
<defs>
<clipPath id="clip0_164_12">
<rect width="100" height="100" fill="white"/>
</clipPath>
</defs>
</svg>
