<svg width="100" height="100" viewBox="0 0 100 100" fill="none" xmlns="http://www.w3.org/2000/svg">
<g clip-path="url(#clip0_164_3)">
<path d="M31.013 53.2176H3.37604C1.50986 53.2176 0 54.7285 0 56.5928C0 58.4568 1.50966 59.9683 3.37604 59.9683H31.013C32.8786 59.9683 34.3884 58.4568 34.3884 56.5928C34.3882 54.7285 32.8786 53.2176 31.013 53.2176Z" fill="black"/>
<path d="M34.3882 39.7151H13.5025C11.6363 39.7151 10.1265 41.2268 10.1265 43.0913C10.1265 44.9551 11.6363 46.4666 13.5025 46.4666H34.3884C36.254 46.4666 37.7638 44.9551 37.7638 43.0913C37.7636 41.2266 36.254 39.7151 34.3882 39.7151Z" fill="black"/>
<path d="M37.7636 26.2133H23.629C21.7628 26.2133 20.2532 27.7246 20.2532 29.5885C20.2532 31.4529 21.7628 32.9646 23.629 32.9646H37.7636C39.6298 32.9646 41.1397 31.4529 41.1397 29.5885C41.1397 27.7246 39.6298 26.2133 37.7636 26.2133Z" fill="black"/>
<path d="M77.3104 56.629C70.0585 56.629 64.1614 62.5279 64.1614 69.7799C64.1614 77.0305 70.0585 82.9294 77.3104 82.9294C84.5594 82.9294 90.4599 77.0305 90.4599 69.7799C90.4599 62.5279 84.5594 56.629 77.3104 56.629ZM77.3104 76.1781C73.7802 76.1781 70.912 73.3089 70.912 69.7799C70.912 66.2514 73.7802 63.3803 77.3104 63.3803C80.8411 63.3803 83.7087 66.2514 83.7087 69.7799C83.7089 73.3087 80.8411 76.1781 77.3104 76.1781Z" fill="black"/>
<path d="M91.1723 43.122L89.0562 43.1039C88.1097 43.0958 87.2695 42.5027 86.9461 41.614L78.5994 18.5605C78.2762 17.666 77.4261 17.0706 76.4731 17.0706H53.1977C52.1164 17.0706 51.1867 17.8373 50.9821 18.8987L41.7326 66.4189C41.6075 67.0821 41.7788 67.7675 42.2075 68.288C42.6358 68.8092 43.2756 69.1106 43.951 69.1106H59.1644C59.5266 59.3831 67.4973 51.5656 77.3106 51.5656C87.1239 51.5656 95.095 59.3829 95.4574 69.1106H97.7383C98.9882 69.1106 100 68.0986 100 66.8515V52.0209C100 47.1336 96.0608 43.1617 91.1723 43.122ZM78.7678 36.099C78.5207 36.4267 78.1351 36.6213 77.723 36.6213H54.2821C53.8965 36.6213 53.5337 36.4535 53.2866 36.1594C53.0395 35.8678 52.9337 35.4806 52.9968 35.1033L54.9512 23.3646C55.057 22.7372 55.601 22.2758 56.2372 22.2758H74.2717C74.8485 22.2758 75.3592 22.6561 75.5209 23.2119L78.9758 34.9504C79.0909 35.3443 79.0149 35.7696 78.7678 36.099Z" fill="black"/>
</g>
<defs>
<clipPath id="clip0_164_3">
<rect width="100" height="100" fill="white"/>
</clipPath>
</defs>
</svg>
