<svg width="80" height="65" viewBox="0 0 80 65" fill="none" xmlns="http://www.w3.org/2000/svg">
<g clip-path="url(#clip0_165_104)">
<path fill-rule="evenodd" clip-rule="evenodd" d="M40 50C53.8072 50 65 38.8072 65 25C65 11.1929 53.8072 0 40 0C26.1929 0 15 11.1929 15 25C15 38.8072 26.1929 50 40 50ZM36.875 9.375V26.2944L47.1653 36.5847L51.5847 32.1653L43.125 23.7056V9.375H36.875Z" fill="black"/>
<path fill-rule="evenodd" clip-rule="evenodd" d="M49.714 51.7597C54.1128 49.5601 59.2419 49.4226 63.732 51.3473L64.6211 51.7597L75.6978 57.298C77.7557 58.3272 78.5903 60.8297 77.5611 62.888C76.6054 64.7993 74.3791 65.6551 72.4179 64.9436L71.9707 64.7514L60.8944 59.213C58.7828 58.1574 56.335 58.0518 54.1562 58.8963L53.4407 59.213L47.9544 61.9564C43.5556 64.156 38.4265 64.2934 33.9364 62.3688L33.0473 61.9564L27.561 59.213C25.4495 58.1574 23.0016 58.0518 20.8229 58.8963L20.1075 59.213L9.03097 64.7514C6.97272 65.7805 4.46989 64.9464 3.4408 62.888C2.48519 60.9767 3.13626 58.6824 4.88209 57.5404L5.30418 57.298L16.3807 51.7597C20.7795 49.5601 25.9086 49.4226 30.3987 51.3473L31.2878 51.7597L36.774 54.503C38.8856 55.5586 41.3334 55.6642 43.5123 54.8197L44.2278 54.503L49.714 51.7597Z" fill="black"/>
</g>
<defs>
<clipPath id="clip0_165_104">
<rect width="80" height="65" fill="white"/>
</clipPath>
</defs>
</svg>
