<svg width="99" height="80" viewBox="0 0 99 80" fill="none" xmlns="http://www.w3.org/2000/svg">
<path d="M16.6457 18.2946L32.6179 22.9057L50.1735 10.1557L24.9791 10.8779C24.7324 10.8914 24.4933 10.9679 24.2846 11.1001L16.3124 15.6835C16.0644 15.8209 15.8633 16.0295 15.7352 16.2824C15.6071 16.5353 15.5578 16.8208 15.5937 17.1021C15.6296 17.3833 15.749 17.6473 15.9366 17.8599C16.1241 18.0725 16.3712 18.2239 16.6457 18.2946Z" fill="black"/>
<path d="M95.1735 4.0168L77.6735 0.239017C76.2018 -0.0804943 74.6785 -0.0796609 73.2071 0.241461C71.7357 0.562583 70.3506 1.19648 69.1458 2.10013L16.2846 40.5168L3.5902 39.9612C2.86308 39.9365 2.14656 40.1408 1.54182 40.5453C0.937072 40.9498 0.474662 41.534 0.219877 42.2155C-0.0349077 42.897 -0.0691942 43.6413 0.121859 44.3433C0.312912 45.0453 0.719653 45.6695 1.28465 46.1279L13.6458 55.9335C13.8493 56.0976 14.0915 56.2068 14.3492 56.2506C14.607 56.2944 14.8717 56.2712 15.118 56.1835C18.6458 54.8223 31.7846 47.8501 47.3124 39.3223L50.4235 71.2946C50.4499 71.5715 50.5514 71.8359 50.7171 72.0594C50.8827 72.2828 51.1062 72.4568 51.3635 72.5626C51.6208 72.6684 51.902 72.7019 52.1769 72.6595C52.4519 72.6172 52.71 72.5006 52.9235 72.3223L59.868 66.5446C60.2481 66.2257 60.5038 65.7832 60.5902 65.2946L67.1735 28.3779C78.2846 22.2112 88.8958 16.239 96.368 12.0168C97.1434 11.5948 97.7704 10.9447 98.164 10.1545C98.5576 9.36431 98.6988 8.47221 98.5684 7.59909C98.4381 6.72596 98.0425 5.914 97.4352 5.27323C96.8279 4.63246 96.0384 4.19384 95.1735 4.0168Z" fill="black"/>
<rect x="19" y="62.4115" width="24.2952" height="4.06475" rx="2.03238" transform="rotate(-28.015 19 62.4115)" fill="black"/>
<rect x="6" y="32" width="21.4063" height="4.08993" rx="2.04496" transform="rotate(-28.015 6 32)" fill="black"/>
<rect x="19" y="77.0089" width="29.8249" height="3.38813" rx="1.69406" transform="rotate(-28.015 19 77.0089)" fill="black"/>
</svg>
