<svg width="100" height="100" viewBox="0 0 100 100" fill="none" xmlns="http://www.w3.org/2000/svg">
<g clip-path="url(#clip0_165_153)">
<path d="M75 3.125C71.2916 3.125 67.6665 4.22467 64.5831 6.28495C61.4996 8.34522 59.0964 11.2736 57.6773 14.6997C56.2581 18.1258 55.8868 21.8958 56.6103 25.5329C57.3338 29.1701 59.1195 32.511 61.7418 35.1333C64.364 37.7555 67.7049 39.5413 71.3421 40.2647C74.9792 40.9882 78.7492 40.6169 82.1753 39.1977C85.6014 37.7786 88.5298 35.3754 90.5901 32.2919C92.6503 29.2085 93.75 25.5834 93.75 21.875C93.7445 16.9039 91.7674 12.1379 88.2522 8.62278C84.7371 5.10765 79.9711 3.13046 75 3.125ZM79.6784 31.5263L71.4844 23.3306V9.375H78.5156V20.4194L84.6528 26.555L79.6784 31.5263Z" fill="black"/>
<path d="M18.75 50V31.25H46.875V25H19.3259C19.9679 23.1772 21.1583 21.5979 22.7338 20.4788C24.3093 19.3598 26.1925 18.7558 28.125 18.75H46.875V12.5H28.125C23.9824 12.5047 20.0109 14.1524 17.0817 17.0817C14.1524 20.0109 12.5047 23.9824 12.5 28.125V65.625C12.5116 68.9838 13.6074 72.2491 15.6243 74.9349C17.6412 77.6207 20.4714 79.5835 23.6937 80.5312L18.0291 93.75H24.8284L30.1856 81.25H57.3144L62.6716 93.75H69.4709L63.8062 80.5312C67.0286 79.5835 69.8588 77.6207 71.8757 74.9349C73.8926 72.2491 74.9884 68.9838 75 65.625V50H18.75ZM68.75 62.5H59.375V68.75H68.1741C67.5322 70.5728 66.3417 72.1521 64.7662 73.2712C63.1908 74.3902 61.3075 74.9942 59.375 75H28.125C26.1925 74.9942 24.3093 74.3902 22.7338 73.2712C21.1583 72.1521 19.9679 70.5728 19.3259 68.75H28.125V62.5H18.75V56.25H68.75V62.5Z" fill="black"/>
</g>
<defs>
<clipPath id="clip0_165_153">
<rect width="100" height="100" fill="white"/>
</clipPath>
</defs>
</svg>
