<?xml version="1.0" standalone="no"?>
<!DOCTYPE svg PUBLIC "-//W3C//DTD SVG 20010904//EN"
 "http://www.w3.org/TR/2001/REC-SVG-20010904/DTD/svg10.dtd">
<svg version="1.0" xmlns="http://www.w3.org/2000/svg"
 width="512.000000pt" height="512.000000pt" viewBox="0 0 512.000000 512.000000"
 preserveAspectRatio="xMidYMid meet">
<metadata>
Created by potrace 1.16, written by Peter Selinger 2001-2019
</metadata>
<g transform="translate(0.000000,512.000000) scale(0.100000,-0.100000)"
fill="#000000" stroke="none">
<path d="M2765 3793 c-241 -36 -546 -87 -830 -139 -192 -35 -388 -71 -435 -80
-167 -30 -180 -42 -180 -169 0 -64 -5 -85 -30 -135 -37 -73 -80 -204 -79 -239
0 -14 -16 -81 -37 -148 -31 -101 -41 -123 -58 -125 -25 -4 -34 -33 -35 -121
-1 -40 -12 -106 -27 -160 -14 -51 -32 -121 -39 -157 l-13 -65 -1 106 c-1 119
-5 125 -67 113 -56 -10 -59 -21 -56 -183 2 -129 5 -149 24 -175 20 -28 20 -30
4 -128 -11 -67 -16 -152 -16 -261 1 -101 -3 -173 -10 -192 -15 -38 -3 -276 15
-322 18 -42 37 -50 137 -59 l85 -6 12 -35 c7 -18 34 -55 61 -82 l48 -48 -55
-7 c-53 -6 -130 -32 -122 -41 5 -5 332 -18 978 -40 404 -14 519 -12 651 11 34
6 398 117 757 229 180 57 250 76 548 145 251 59 266 70 65 50 -56 -6 -104 -9
-106 -7 -3 2 -2 12 2 21 4 11 19 16 51 16 l45 0 -6 44 -7 45 52 3 c37 2 55 8
63 21 16 26 -33 67 -78 67 -21 0 -36 6 -40 15 -4 12 5 15 49 15 56 0 69 7 59
34 -5 12 -20 16 -59 16 -46 0 -53 3 -58 22 -4 12 -5 23 -4 25 2 1 35 6 75 9
69 7 71 8 66 30 -3 13 -3 32 1 41 8 20 6 716 -4 1133 l-6 275 -205 113 c-113
63 -378 207 -590 321 l-385 206 -90 1 c-49 1 -103 0 -120 -3z m494 -189 c443
-232 871 -466 871 -475 0 -5 -33 9 -72 30 -40 21 -161 85 -268 142 -223 117
-784 399 -795 399 -9 0 1 -1719 11 -1882 7 -104 6 -108 -13 -108 -27 0 -33 37
-33 210 0 74 -5 241 -10 370 -6 129 -17 497 -24 818 -9 391 -17 587 -24 594
-25 25 -778 -91 -1282 -198 -210 -45 -200 -41 -200 -69 0 -24 -43 -60 -60 -50
-6 3 -10 26 -10 49 0 76 11 82 220 121 102 18 295 54 430 79 207 38 466 81
745 124 33 5 91 10 129 11 l68 1 317 -166z m-409 -54 l0 -99 -32 -5 c-18 -3
-65 -7 -104 -10 -39 -3 -97 -14 -130 -25 l-59 -19 73 6 c86 6 99 -2 142 -88
25 -49 67 -171 84 -242 l6 -26 -113 49 c-145 62 -211 79 -317 79 -48 0 -89 3
-93 6 -8 8 45 157 93 259 20 45 54 100 74 123 32 35 47 43 109 57 98 21 174
32 225 34 l42 1 0 -100z m732 -173 l543 -274 6 -224 c4 -123 7 -393 8 -600 l1
-377 -222 -6 c-649 -19 -863 -24 -867 -20 -2 2 -8 246 -12 541 -5 296 -11 694
-15 886 -5 253 -4 347 4 347 6 0 256 -123 554 -273z m-1142 189 c-9 -8 -77
-20 -175 -31 -174 -19 -442 -58 -517 -76 -90 -21 -48 -26 69 -8 64 10 173 25
242 34 69 8 148 18 175 21 l50 6 -41 -48 c-22 -27 -66 -84 -97 -127 -32 -43
-67 -83 -79 -88 -12 -5 -58 -16 -102 -24 l-80 -14 77 5 c109 7 129 16 174 82
65 95 152 200 176 213 19 11 108 30 108 24 0 -1 -18 -40 -39 -86 -22 -46 -52
-126 -67 -176 -32 -106 -17 -98 -184 -108 -146 -9 -494 -44 -599 -61 -97 -15
-110 -12 -111 24 0 37 132 244 190 296 44 39 87 51 360 97 228 39 362 57 430
58 46 1 52 -1 40 -13z m-965 -130 c-43 -14 -51 -13 -40 3 3 6 23 11 43 10 l37
-1 -40 -12z m55 -83 c-72 -109 -120 -202 -120 -237 0 -20 -6 -27 -27 -32 -16
-3 -52 -12 -82 -19 l-53 -14 5 29 c13 61 69 190 103 234 35 47 100 87 179 112
22 7 43 13 47 13 4 1 -19 -38 -52 -86z m1323 70 c5 -8 21 -161 31 -298 l6 -70
-29 110 c-29 112 -65 212 -82 230 -16 16 -10 24 24 28 17 2 35 5 39 5 4 1 9
-1 11 -5z m-268 -310 c120 -45 263 -113 269 -130 4 -10 2 -13 -6 -10 -7 3 -56
24 -108 48 -52 23 -111 43 -130 43 l-35 1 -8 -85 c-4 -47 -21 -219 -37 -384
-22 -214 -28 -321 -24 -380 9 -115 9 -114 93 -108 l71 5 77 73 c42 41 80 74
83 74 7 0 20 -269 20 -398 l0 -64 -27 6 c-159 35 -248 -4 -315 -138 -38 -76
-65 -106 -95 -106 -23 0 -23 1 -23 133 0 72 -4 138 -9 145 -6 11 -19 10 -71
-3 -86 -22 -134 -48 -184 -100 -41 -41 -106 -150 -106 -175 0 -10 31 -12 143
-7 86 4 134 3 122 -3 -11 -5 -87 -9 -168 -9 l-148 -1 6 23 c32 104 192 446
238 510 12 16 63 62 112 102 50 41 98 84 109 96 15 18 20 19 26 8 4 -8 10
-128 11 -267 4 -274 8 -251 -48 -290 -10 -7 23 8 72 33 50 24 108 51 130 59
24 9 32 15 20 15 -11 1 -49 -13 -83 -29 -35 -17 -66 -30 -68 -30 -2 0 -4 65
-4 143 0 79 -3 198 -6 265 -6 106 -9 121 -25 125 -15 4 -18 12 -14 34 3 15 12
89 20 163 9 74 24 196 35 270 35 253 35 246 6 275 -23 23 -33 25 -110 25 -268
0 -985 -73 -1123 -115 -26 -8 -48 -13 -49 -12 -1 1 5 19 13 39 19 49 57 61
283 92 367 51 656 76 845 71 125 -3 148 -6 220 -32z m167 -117 c82 -38 118
-61 123 -76 4 -12 4 -24 2 -27 -3 -3 -56 18 -118 47 -79 37 -121 51 -143 48
-30 -3 -31 -2 -31 35 0 36 2 38 25 33 14 -2 77 -29 142 -60z m4 -79 l129 -54
7 -69 c3 -38 9 -206 12 -374 3 -168 9 -394 12 -502 l5 -198 -32 0 c-26 0 -30
-3 -24 -17 42 -109 58 -195 60 -328 l4 -140 -9 105 c-10 120 -40 223 -84 289
-41 60 -76 77 -127 62 -51 -15 -85 -66 -104 -156 -15 -73 -24 -85 -67 -85 -25
0 -28 4 -28 33 0 58 20 159 39 196 37 71 102 111 181 111 57 0 86 -11 113 -44
17 -21 17 -21 5 7 -9 22 -9 30 0 36 9 5 12 89 11 327 0 175 -3 329 -6 342 -4
19 -12 22 -54 22 l-49 0 -1 -92 c-1 -110 -17 -93 -18 18 -1 89 8 99 81 91 28
-4 55 -12 60 -19 6 -10 8 -10 8 0 0 8 -9 16 -19 19 -16 4 -20 17 -26 81 -16
198 -27 288 -38 298 -15 15 -152 64 -178 64 -16 0 -19 -7 -19 -51 0 -34 6 -58
19 -75 24 -30 30 -23 23 31 -3 27 -1 45 5 45 17 0 23 -55 11 -96 l-10 -38 -18
22 c-20 24 -40 29 -40 10 -1 -7 -12 -85 -25 -173 -26 -170 -25 -130 5 157 10
97 21 181 24 187 11 18 27 14 162 -42z m18 -66 c20 -32 37 -332 20 -338 -7 -2
-14 37 -18 113 -4 64 -12 128 -17 141 -5 13 -24 31 -44 40 -27 13 -35 23 -35
44 0 15 -3 35 -6 44 -6 14 3 12 44 -9 28 -14 53 -30 56 -35z m-1395 -17 c40
-13 79 -24 87 -24 25 0 44 -31 44 -74 l0 -43 -47 -6 c-27 -4 -96 -12 -155 -18
-60 -6 -108 -16 -108 -21 0 -5 15 -6 33 -4 163 28 1188 108 1187 94 0 -2 -9
-52 -20 -113 -11 -60 -20 -113 -20 -117 0 -8 -50 -13 -313 -33 -114 -9 -216
-20 -225 -24 -9 -5 -127 -17 -262 -26 -255 -17 -280 -20 -280 -36 0 -5 -31 -9
-70 -9 -67 0 -70 -1 -70 -24 0 -18 -7 -25 -27 -29 -16 -3 -30 -3 -33 -1 -10
10 34 186 81 329 56 168 83 220 108 210 9 -4 49 -17 90 -31z m1342 -53 c20
-16 24 -31 32 -139 9 -108 7 -145 -8 -131 -2 3 -7 54 -11 114 -7 104 -9 112
-36 137 -15 14 -28 29 -28 32 0 12 29 5 51 -13z m-14 -438 c-2 -32 -3 -6 -3
57 0 63 1 89 3 58 2 -32 2 -84 0 -115z m-1762 86 c-4 -12 -9 -81 -11 -153 -4
-158 -3 -156 -14 -131 -14 33 -12 292 3 298 24 10 28 7 22 -14z m1592 -31 c-2
-13 -4 -5 -4 17 -1 22 1 32 4 23 2 -10 2 -28 0 -40z m-574 -25 c-24 -2 -62 -2
-85 0 -24 2 -5 4 42 4 47 0 66 -2 43 -4z m175 -42 c52 -27 111 -67 87 -59 -5
2 -39 19 -75 37 -36 19 -81 38 -100 42 l-35 7 33 1 c18 0 58 -12 90 -28z m389
-18 c-3 -10 -5 -2 -5 17 0 19 2 27 5 18 2 -10 2 -26 0 -35z m-1324 10 c-7 -2
-19 -2 -25 0 -7 3 -2 5 12 5 14 0 19 -2 13 -5z m167 -60 c19 -12 29 -23 22
-23 -13 0 -112 68 -112 77 0 5 21 -7 90 -54z m619 53 c-2 -2 -65 -6 -139 -9
-74 -2 -112 -1 -85 3 53 7 231 13 224 6z m-1042 -78 c-2 -13 -4 -5 -4 17 -1
22 1 32 4 23 2 -10 2 -28 0 -40z m342 38 c-2 -2 -51 -6 -109 -8 -58 -3 -91 -2
-75 2 30 8 192 13 184 6z m1121 -10 c0 -2 -34 -29 -75 -61 -136 -104 -135
-102 -363 -575 -18 -37 -52 -53 -52 -26 0 25 68 229 105 318 19 44 28 74 20
68 -17 -14 -73 -147 -115 -275 -18 -57 -43 -111 -56 -125 l-25 -25 -323 0
c-186 0 -322 -4 -319 -9 3 -5 -8 2 -26 15 -32 23 -45 53 -102 219 -40 116
-101 272 -105 268 -2 -2 30 -105 70 -228 40 -124 76 -240 79 -257 l7 -33 -78
1 c-42 1 -88 5 -102 9 -15 5 5 6 50 3 102 -6 109 0 77 71 -30 64 -49 91 -113
158 l-45 46 11 89 c6 48 19 126 28 173 l17 85 295 17 c162 9 421 21 575 28
357 15 387 17 465 34 69 14 100 18 100 12z m368 -4 c7 -5 -32 -14 -93 -21 -59
-6 -118 -17 -133 -22 -22 -8 -25 -8 -14 3 7 7 52 20 100 29 103 20 123 21 140
11z m1372 -426 l0 -43 -87 -7 c-49 -3 -171 -11 -273 -16 -183 -10 -538 -34
-677 -46 l-73 -7 0 66 0 65 123 7 c161 8 609 21 820 23 l167 2 0 -44z m-1800
-136 c0 -95 -2 -110 -16 -110 -14 0 -16 8 -10 53 3 28 6 78 6 110 0 31 5 57
10 57 6 0 10 -43 10 -110z m-64 -107 c-4 -10 -34 -13 -121 -13 l-116 0 40 58
c49 71 73 94 141 131 l55 30 3 -96 c1 -53 0 -103 -2 -110z m-1265 73 c53 -80
52 -86 -21 -86 l-60 0 0 79 c0 44 -3 88 -7 98 -11 32 45 -26 88 -91z m2708 8
c12 -15 21 -32 21 -38 0 -6 -9 4 -20 22 -30 49 -63 44 -94 -15 -14 -27 -25
-44 -26 -40 0 10 28 67 42 85 17 20 55 14 77 -14z m-156 -29 c-8 -25 -17 -45
-20 -45 -4 0 2 25 18 68 16 42 18 22 2 -23z m337 31 c0 -2 -7 -7 -16 -10 -8
-3 -12 -2 -9 4 6 10 25 14 25 6z m-374 -74 c-12 -11 -16 6 -9 39 l8 34 3 -33
c2 -19 1 -36 -2 -40z m337 33 c-3 -9 -8 -14 -10 -11 -3 3 -2 9 2 15 9 16 15
13 8 -4z m-778 -5 c-3 -5 -13 -10 -21 -10 -8 0 -14 5 -14 10 0 6 9 10 21 10
11 0 17 -4 14 -10z m150 -15 c0 -28 -29 -25 -33 3 -3 19 0 23 15 20 10 -2 18
-12 18 -23z m193 -7 c-6 -18 -28 -21 -28 -4 0 9 7 16 16 16 9 0 14 -5 12 -12z
m519 -20 c-3 -8 -6 -5 -6 6 -1 11 2 17 5 13 3 -3 4 -12 1 -19z m-244 -15 c21
-42 27 -113 16 -184 -14 -88 -38 -114 -61 -65 -8 20 -7 28 6 41 12 12 16 37
17 98 0 55 3 75 9 62 15 -34 11 -134 -6 -166 -8 -17 -13 -33 -10 -36 2 -3 12
9 20 26 28 53 18 231 -13 231 -16 0 -24 -33 -32 -125 l-7 -90 2 90 c1 68 5 98
19 118 22 33 23 33 40 0z m-105 -15 c-4 -39 19 -33 -306 -86 l-233 -39 3 46 3
46 245 32 c317 40 292 40 288 1z m159 10 c-3 -8 -6 -5 -6 6 -1 11 2 17 5 13 3
-3 4 -12 1 -19z m171 -87 c4 -81 -16 -150 -39 -135 -8 4 -8 8 -1 13 36 22 45
164 13 198 -23 24 -15 41 8 18 11 -11 17 -40 19 -94z m29 42 c-3 -10 -5 -4 -5
12 0 17 2 24 5 18 2 -7 2 -21 0 -30z m-2519 20 c-43 -2 -113 -2 -155 0 -43 1
-8 3 77 3 85 0 120 -2 78 -3z m2472 -69 c0 -23 -5 -55 -12 -71 -11 -27 -12
-27 -15 -5 -3 12 -9 22 -14 22 -5 0 -8 19 -7 43 l1 42 4 -38 c2 -20 8 -35 14
-32 13 9 11 89 -3 105 -7 8 -3 6 10 -4 16 -14 22 -30 22 -62z m-1486 -4 c9
-75 6 -215 -6 -256 -5 -20 -16 -34 -30 -38 -37 -9 -539 -6 -1006 8 -409 12
-434 13 -452 32 -17 17 -21 37 -25 129 -3 80 -2 95 4 54 4 -31 11 -61 15 -67
7 -12 143 -38 152 -30 3 3 -11 37 -30 76 -36 72 -49 82 -113 82 -30 0 -33 3
-33 31 l0 31 117 -7 c79 -5 125 -12 141 -23 31 -20 301 -36 510 -29 126 4 158
9 180 24 23 15 63 20 282 29 140 6 262 11 271 12 13 2 18 -11 23 -58z m1343
-7 c-2 -16 -4 -5 -4 22 0 28 2 40 4 28 2 -13 2 -35 0 -50z m-727 13 c0 -40 -2
-44 -27 -49 -34 -6 -34 -6 -43 40 -6 31 -8 23 -9 -40 l-1 -77 41 6 40 7 -3
-39 c-3 -36 -6 -39 -42 -46 -21 -5 -40 -7 -41 -6 -1 2 -5 56 -8 120 -6 130 -9
123 66 127 26 1 27 -1 27 -43z m538 -33 c-3 -30 19 -23 -319 -102 -97 -22
-182 -41 -188 -41 -6 0 -11 15 -11 34 l0 33 103 22 c275 57 384 79 400 80 14
1 18 -5 15 -26z m-831 -14 c58 -49 75 -182 35 -271 -30 -68 -63 -98 -107 -98
-68 0 -116 76 -114 182 1 35 3 55 6 46 2 -10 9 -18 14 -18 12 0 11 24 -2 37
-15 15 -1 54 18 51 9 -2 18 3 20 10 3 6 -3 12 -14 12 -14 0 -9 9 21 36 33 31
43 35 73 31 19 -3 41 -12 50 -18z m-190 -2 c-2 -7 -10 -38 -17 -70 -10 -48
-15 -58 -36 -63 -35 -9 -41 1 -46 79 l-4 67 54 0 c40 0 53 -3 49 -13z m-1562
-8 c4 -5 4 -21 1 -35 -8 -32 -51 -34 -60 -1 -3 12 -6 28 -6 35 0 15 56 16 65
1z m2355 -118 c0 -13 -73 -23 -130 -19 -42 3 -40 4 30 14 102 15 100 15 100 5z
m-832 -73 c-3 -30 -6 -33 -40 -36 -36 -3 -38 -2 -38 26 0 37 6 42 47 42 33 0
34 -2 31 -32z m-434 -129 c6 -5 1 -9 -12 -9 -30 0 -534 -90 -547 -98 -5 -3 7
13 28 37 21 23 43 53 49 67 l12 26 230 -7 c127 -4 235 -11 240 -16z m371 -30
c10 -22 36 -58 57 -80 35 -36 36 -39 11 -25 -45 23 -103 100 -103 136 0 23 18
8 35 -31z"/>
<path d="M4020 2000 l0 -40 53 2 52 1 -50 7 -50 7 48 1 c40 2 47 5 47 22 0 17
-7 20 -41 20 -22 0 -38 -4 -34 -9 3 -5 1 -12 -5 -16 -5 -3 -10 3 -10 14 0 17
8 21 53 24 l52 3 -57 2 -58 2 0 -40z"/>
<path d="M2330 2028 c-33 -33 -70 -101 -70 -128 0 -8 16 14 35 49 19 35 44 75
57 88 33 35 15 28 -22 -9z"/>
<path d="M2771 1986 c-7 -8 -11 -27 -9 -43 3 -25 7 -28 38 -28 34 0 35 1 38
43 3 41 2 42 -26 42 -16 0 -35 -6 -41 -14z"/>
<path d="M1505 1948 c-170 -4 -334 -11 -364 -14 l-53 -6 31 -32 c17 -18 31
-39 31 -48 0 -46 54 -182 85 -216 l33 -37 235 -3 235 -3 35 30 c19 17 42 52
52 78 9 27 26 63 36 81 11 19 17 37 14 42 -3 4 2 13 10 20 8 7 15 17 15 23 0
6 14 25 31 43 17 18 28 37 25 43 -4 6 -35 10 -74 9 -37 0 -206 -5 -377 -10z
m35 -38 c63 -33 57 -134 -9 -173 -42 -24 -68 -21 -102 12 -41 42 -40 88 5 135
35 37 69 46 106 26z m280 0 c-36 -4 -105 -7 -155 -7 -76 0 -82 1 -40 7 28 4
97 7 155 7 97 0 100 -1 40 -7z m-425 -10 c-16 -4 -70 -7 -120 -7 -84 0 -86 1
-30 7 88 10 188 10 150 0z m460 -39 c-13 -11 -245 -22 -245 -11 0 8 31 11 205
18 28 1 45 -2 40 -7z m-517 -18 c-26 -2 -71 -2 -100 0 -29 2 -8 3 47 3 55 0
79 -1 53 -3z m497 -43 c-4 -6 -52 -9 -118 -8 l-112 2 110 6 c61 3 114 7 118 8
5 1 5 -2 2 -8z m-460 -10 c8 -13 -145 -13 -165 0 -10 7 12 10 72 10 48 0 90
-4 93 -10z m435 -50 c0 -6 -45 -9 -117 -8 -117 2 -117 2 -38 8 132 10 155 10
155 0z m-462 -7 c-27 -2 -69 -2 -95 0 -27 2 -5 3 47 3 52 0 74 -1 48 -3z m97
-53 c7 -12 -167 -12 -205 0 -16 5 15 8 87 9 65 1 114 -3 118 -9z m325 0 c-38
-12 -252 -12 -245 0 4 6 60 10 138 9 82 -1 122 -4 107 -9z m-41 -56 c9 -8
-425 -2 -444 6 -12 5 74 7 210 3 127 -3 232 -7 234 -9z"/>
<path d="M1451 1883 c-43 -36 -44 -110 -2 -133 41 -21 102 16 116 70 15 60
-65 103 -114 63z m59 -63 c23 -33 19 -35 -38 -24 -30 6 -31 7 -15 30 20 31 27
30 53 -6z"/>
<path d="M3965 1839 c-93 -4 -333 -15 -532 -25 -300 -15 -363 -20 -363 -32 0
-11 11 -13 53 -8 77 9 550 35 794 44 184 7 240 13 222 25 -2 1 -80 -1 -174 -4z"/>
<path d="M2124 1440 c-104 -7 -118 -15 -175 -91 l-40 -54 31 -3 c53 -6 271 17
286 29 12 10 44 98 44 121 0 9 -7 9 -146 -2z m93 -46 c3 -8 1 -27 -6 -40 -9
-21 -17 -25 -49 -22 -35 3 -37 5 -40 41 l-3 37 46 0 c32 0 47 -5 52 -16z"/>
<path d="M2156 1383 c-3 -4 -6 -15 -6 -25 0 -14 6 -19 23 -16 29 4 36 43 8 45
-10 1 -22 -1 -25 -4z"/>
<path d="M1293 1405 c-8 -22 4 -87 18 -96 14 -8 318 -23 364 -18 29 4 30 5 30
59 l0 55 -60 6 c-33 4 -124 7 -203 8 -120 1 -144 -1 -149 -14z m355 -49 c4
-18 -1 -19 -64 -13 -38 4 -108 7 -156 7 -77 0 -88 2 -88 18 0 16 12 17 152 12
140 -5 153 -7 156 -24z"/>
<path d="M1400 1260 c0 -19 7 -20 110 -20 87 0 110 3 110 14 0 21 -23 26 -126
26 -87 0 -94 -1 -94 -20z"/>
<path d="M959 1252 c11 -20 98 -32 220 -32 82 1 46 15 -84 34 -144 21 -148 21
-136 -2z"/>
<path d="M2148 1255 c-2 -3 -78 -9 -167 -13 -212 -11 -235 -29 -40 -32 79 -1
174 -5 212 -9 74 -8 83 0 44 37 -23 22 -39 27 -49 17z"/>
<path d="M2685 1430 c-3 -5 1 -10 9 -10 9 0 16 5 16 10 0 6 -4 10 -9 10 -6 0
-13 -4 -16 -10z"/>
<path d="M2730 1402 c0 -11 7 -22 15 -26 9 -3 15 0 15 8 0 7 -7 19 -15 26 -12
10 -15 9 -15 -8z"/>
<path d="M2667 1379 c-41 -24 -61 -136 -34 -188 18 -36 47 -51 76 -40 l24 9
-24 26 c-30 32 -33 114 -5 156 27 41 5 62 -37 37z"/>
<path d="M2781 1328 c0 -13 -1 -32 -3 -43 -2 -12 4 -21 15 -23 12 -3 17 3 17
22 0 14 -5 28 -10 31 -6 4 -8 10 -5 15 3 5 1 11 -5 15 -5 3 -10 -4 -9 -17z"/>
<path d="M2720 1305 c-10 -13 -10 -19 5 -35 26 -29 35 -25 35 15 0 38 -18 47
-40 20z"/>
<path d="M2777 1226 c-6 -15 1 -26 15 -26 11 0 10 27 -1 34 -5 3 -11 0 -14 -8z"/>
<path d="M2586 1213 c-12 -12 -6 -33 9 -33 8 0 15 6 15 14 0 17 -14 28 -24 19z"/>
<path d="M2741 1156 c-9 -10 -8 -16 3 -25 12 -10 17 -8 25 7 16 30 -6 44 -28
18z"/>
<path d="M2610 1136 c0 -22 29 -41 42 -28 9 9 9 12 0 12 -7 0 -12 7 -12 15 0
8 -7 15 -15 15 -8 0 -15 -6 -15 -14z"/>
<path d="M2677 1123 c-13 -12 -7 -44 8 -49 20 -8 45 13 45 37 0 13 -7 19 -23
19 -13 0 -27 -3 -30 -7z"/>
<path d="M960 1391 c0 -12 6 -21 16 -21 9 0 14 7 12 17 -5 25 -28 28 -28 4z"/>
<path d="M4065 1275 c-5 -2 -66 -20 -135 -41 -159 -47 -1270 -423 -1290 -435
-28 -18 328 -4 403 16 37 9 67 21 67 25 0 4 -14 11 -32 16 l-32 9 70 27 c689
266 976 378 983 384 5 5 -20 4 -34 -1z"/>
</g>
</svg>