<svg width="100" height="100" viewBox="0 0 100 100" fill="none" xmlns="http://www.w3.org/2000/svg">
<g clip-path="url(#clip0_164_62)">
<path d="M66.9812 37.4219L93.8624 10.7063L93.7749 25.85C93.7468 27.1125 94.7468 28.2094 96.0124 28.1812L97.6156 28.1781C98.8781 28.15 99.9249 27.3969 99.9531 26.1344L100.019 3.575C100.019 3.55313 99.9343 3.5375 99.9343 3.51563L100.059 2.37188C100.072 1.7375 99.9218 1.17188 99.5156 0.76875C99.1093 0.359375 98.5437 0.1125 97.9156 0.13125L96.7718 0.159375C96.7499 0.159375 96.7343 0.16875 96.7093 0.171875L74.2968 0.0718754C73.0343 0.1 71.9906 1.14375 71.9624 2.40938L71.9593 4.0125C72.1499 5.5 73.3218 6.37187 74.5843 6.34375L89.3531 6.38438L62.5656 33.0094C61.3468 34.2281 61.3468 36.2094 62.5656 37.4312C63.7843 38.6531 65.7624 38.65 66.9843 37.4312L66.9812 37.4219ZM33.1156 62.5781L6.23432 89.2125L6.31869 74.15C6.34994 72.8875 5.34369 71.7875 4.08119 71.8156L2.38119 71.8188C1.11557 71.85 0.0718187 72.6 0.0436937 73.8625L-0.0219313 96.4219C-0.0219313 96.4438 0.0655687 96.4563 0.0655687 96.4813L-0.0594313 97.6219C-0.0750563 98.2563 0.0749437 98.825 0.484319 99.2281C0.887444 99.6375 1.45619 99.8844 2.08432 99.8688L3.22807 99.8406C3.24994 99.8406 3.26557 99.8312 3.29057 99.8312L25.7999 99.9313C27.0624 99.9 28.1062 98.8562 28.1374 97.5938L28.1406 95.9875C27.9468 94.5 26.7781 93.6281 25.5156 93.6563L10.7468 93.6188L37.5312 67C38.7499 65.7813 38.7499 63.8031 37.5312 62.5813C36.3124 61.3594 34.3343 61.3563 33.1156 62.5781ZM100.022 96.4219L99.9562 73.8625C99.9281 72.6 98.8843 71.8469 97.6218 71.8188L96.0187 71.8156C94.7562 71.7875 93.7531 72.8875 93.7812 74.15L93.8687 89.2937L66.9874 62.5781C65.7687 61.3594 63.7906 61.3594 62.5687 62.5781C61.3468 63.7969 61.3499 65.775 62.5687 66.9969L89.3531 93.6156L74.5843 93.6531C73.3218 93.625 72.1499 94.4969 71.9593 95.9844L71.9624 97.5906C71.9906 98.8531 73.0374 99.9 74.2968 99.9281L96.7093 99.8281C96.7343 99.8281 96.7499 99.8375 96.7718 99.8375L97.9156 99.8656C98.5437 99.8813 99.1156 99.6344 99.5156 99.225C99.9249 98.8219 100.072 98.2531 100.059 97.6188L99.9343 96.4781C99.9343 96.4531 100.019 96.4406 100.019 96.4188L100.022 96.4219ZM10.7468 6.37812L25.5187 6.34063C26.7812 6.36875 27.9499 5.49688 28.1437 4.00938L28.1406 2.40625C28.1093 1.14063 27.0656 0.0968754 25.8031 0.0687504L3.29057 0.165625C3.26557 0.1625 3.24994 0.153125 3.22807 0.153125L2.08432 0.125C1.45619 0.109375 0.887444 0.35625 0.484319 0.7625C0.0718187 1.16875 -0.0750563 1.73125 -0.0594313 2.36875L0.0655687 3.5125C0.0655687 3.53438 -0.0219313 3.55 -0.0219313 3.575L0.0436937 26.1344C0.0718187 27.3969 1.11557 28.15 2.38119 28.1781L4.08432 28.1812C5.34682 28.2094 6.34682 27.1125 6.31869 25.85L6.23119 10.7906L33.1124 37.425C34.3312 38.6437 36.3124 38.6437 37.5312 37.425C38.7499 36.2062 38.7499 34.225 37.5312 33.0031L10.7468 6.37812Z" fill="black"/>
</g>
<defs>
<clipPath id="clip0_164_62">
<rect width="100" height="100" fill="white"/>
</clipPath>
</defs>
</svg>
