<svg width="100" height="100" viewBox="0 0 100 100" fill="none" xmlns="http://www.w3.org/2000/svg">
<g clip-path="url(#clip0_164_32)">
<path d="M58.1188 89.5891V63.0522C68.168 60.3291 77.3543 51.4794 76.2959 38.989L72.6095 1.66185C72.5166 0.718859 71.7232 1.90735e-06 70.7755 1.90735e-06H53.0971L48.4817 9.84982L56.5764 13.2498C57.3015 13.554 57.8806 14.1493 58.1656 14.8829C58.4502 15.6162 58.4248 16.4463 58.0956 17.1604L51.5584 31.3237C51.0828 32.3534 50.0433 33.0184 48.9093 33.0184H48.9082C48.4854 33.0184 48.0751 32.9281 47.6887 32.7496C46.2289 32.0761 45.5889 30.3398 46.2628 28.8796L51.5344 17.4579L43.4239 14.0513C42.6954 13.7457 42.1152 13.1473 41.8313 12.4101C41.5475 11.6731 41.5773 10.84 41.9124 10.1248L46.6561 1.90735e-06H29.2421C28.2943 1.90735e-06 27.501 0.718859 27.4077 1.66222L23.7195 39.0103C23.161 45.4259 24.9769 51.1524 28.9715 55.5702C32.14 59.0749 36.6895 61.7023 41.8984 63.06V89.5891C32.6764 90.9682 26.1477 96.5108 25.8587 96.76C25.2748 97.2628 25.0654 98.0757 25.3334 98.7982C25.6017 99.5204 26.2907 100 27.0616 100H72.9556C73.7261 100 74.4155 99.5208 74.6838 98.7982C74.9518 98.0757 74.7424 97.2628 74.1585 96.76C73.8695 96.5108 67.3408 90.9686 58.1188 89.5891Z" fill="black"/>
</g>
<defs>
<clipPath id="clip0_164_32">
<rect width="100" height="100" fill="white"/>
</clipPath>
</defs>
</svg>
