<?xml version="1.0" standalone="no"?>
<!DOCTYPE svg PUBLIC "-//W3C//DTD SVG 20010904//EN"
 "http://www.w3.org/TR/2001/REC-SVG-20010904/DTD/svg10.dtd">
<svg version="1.0" xmlns="http://www.w3.org/2000/svg"
 width="512.000000pt" height="512.000000pt" viewBox="0 0 512.000000 512.000000"
 preserveAspectRatio="xMidYMid meet">
<metadata>
Created by potrace 1.16, written by Peter Selinger 2001-2019
</metadata>
<g transform="translate(0.000000,512.000000) scale(0.100000,-0.100000)"
fill="#000000" stroke="none">
<path d="M2981 3994 c-12 -15 -21 -37 -21 -49 0 -26 -30 -35 -119 -35 -152 0
-457 -52 -598 -101 -45 -16 -83 -29 -86 -29 -2 0 -7 20 -10 45 -2 25 -13 55
-22 65 -22 24 -87 27 -105 5 -7 -9 -14 -64 -17 -142 -7 -159 -15 -179 -80
-189 -26 -4 -62 -13 -80 -21 l-33 -13 0 122 c0 240 -16 305 -62 249 -16 -21
-18 -43 -18 -213 0 -221 -5 -239 -74 -257 -47 -12 -72 -32 -116 -96 -30 -43
-33 -45 -80 -45 l-50 0 -1 38 c-1 20 -5 48 -9 62 -7 18 -8 9 -7 -35 1 -59 1
-60 -28 -63 -16 -2 -42 -13 -58 -24 l-28 -20 3 -149 3 -148 -110 -27 c-147
-36 -355 -108 -432 -148 l-62 -33 -43 36 c-23 20 -38 29 -33 21 5 -9 0 -8 -13
4 -12 11 -22 20 -22 20 0 1 12 2 28 1 24 0 27 4 30 36 4 48 -38 102 -77 97
-23 -3 -26 -8 -29 -43 -5 -62 16 -112 70 -160 26 -24 48 -47 48 -52 0 -6 -8
-25 -17 -44 -13 -26 -19 -71 -23 -189 -4 -136 -8 -159 -26 -185 -12 -16 -26
-45 -32 -64 -15 -42 -16 -131 -2 -131 20 0 11 -76 -11 -96 -20 -18 -21 -26
-16 -114 3 -52 11 -110 17 -128 14 -39 61 -65 170 -97 65 -19 78 -27 102 -61
31 -45 29 -48 -59 -65 -59 -12 -86 -29 -45 -29 10 0 79 -18 153 -40 171 -52
341 -86 499 -100 241 -23 275 -29 125 -24 -238 9 -486 44 -865 124 -100 21
-187 27 -160 10 29 -16 248 -79 347 -99 296 -60 594 -91 880 -91 336 0 429 17
651 117 190 85 341 147 627 258 214 83 476 193 522 220 27 15 27 15 3 9 -14
-3 -115 -40 -225 -81 -221 -83 -393 -143 -409 -143 -19 1 171 88 312 144 332
131 391 149 477 151 78 0 86 3 399 129 175 70 386 152 468 181 145 50 165 65
86 65 l-29 0 7 83 c6 78 14 115 14 69 0 -15 6 -22 20 -22 16 0 20 7 20 30 0
19 -5 30 -12 29 -40 -5 -54 15 -18 24 13 3 20 14 20 30 0 14 5 29 10 32 11 7
12 321 1 419 l-6 58 -190 87 c-104 48 -232 109 -284 135 -110 56 -145 70 -136
56 16 -27 -15 -2 -106 83 -55 50 -120 118 -144 149 -25 31 -68 82 -96 112 -49
53 -56 57 -162 90 -62 19 -129 38 -149 41 -23 5 -43 16 -53 31 -20 31 -78 60
-138 69 -27 4 -47 13 -47 20 0 7 -9 24 -21 39 -15 19 -30 26 -54 26 -24 0 -39
-7 -54 -26z m89 -29 c11 -13 8 -15 -14 -15 -27 0 -36 -26 -16 -46 5 -5 12
-101 14 -214 3 -113 7 -250 8 -305 l3 -100 -31 -3 c-31 -3 -31 -2 -37 50 -13
101 -8 623 5 636 17 17 53 15 68 -3z m150 -90 c37 -19 125 -119 150 -171 21
-42 43 -143 54 -246 8 -72 9 -72 -148 -18 -64 22 -126 40 -136 40 -12 0 -28
13 -40 33 -18 29 -20 50 -20 211 l0 179 56 -7 c31 -3 68 -13 84 -21z m-1100
-30 c0 -8 -9 -15 -20 -15 -16 0 -20 -7 -20 -38 0 -21 4 -42 9 -47 6 -6 -1 -23
-19 -45 l-29 -35 -1 98 c0 92 1 98 23 106 26 10 57 -3 57 -24z m838 -134 l3
-153 -23 5 c-13 3 -69 11 -125 18 -56 6 -107 15 -113 19 -11 7 31 77 84 139
12 13 15 21 8 17 -7 -5 -38 -41 -68 -82 -30 -41 -59 -74 -63 -74 -5 0 -14 7
-21 15 -9 11 -34 15 -100 15 -69 0 -89 -3 -94 -15 -4 -11 -22 -15 -68 -15 -35
0 -105 -5 -157 -10 -52 -6 -96 -8 -98 -6 -3 2 20 23 50 45 93 70 240 109 496
131 69 6 127 13 130 16 3 3 -23 3 -59 0 -36 -3 -101 -8 -145 -12 -235 -18
-449 -90 -501 -168 -15 -25 -64 -37 -64 -18 0 21 121 130 176 159 123 65 492
134 694 129 l55 -1 3 -154z m-1178 -42 c0 -81 -3 -154 -6 -163 -17 -43 -24 11
-24 172 1 158 2 175 15 158 12 -15 15 -53 15 -167z m1706 111 c101 -30 102
-31 160 -98 l59 -67 -67 58 c-63 54 -71 58 -154 74 -74 13 -93 21 -123 49
l-36 34 30 -10 c17 -5 76 -23 131 -40z m26 -113 c63 -5 75 -10 105 -39 l33
-32 0 -483 c0 -479 0 -482 -21 -493 -27 -15 -38 -4 -14 14 17 12 19 35 23 289
4 266 4 277 -17 320 -12 24 -37 62 -56 83 l-34 39 -1 -406 c0 -427 1 -419 -40
-419 -5 0 -11 197 -13 438 -3 350 -7 455 -20 527 -9 50 -19 119 -21 155 -3 36
-2 53 0 39 5 -25 9 -27 76 -32z m268 -192 c100 -93 375 -312 475 -379 44 -29
142 -88 218 -130 76 -43 137 -84 137 -92 0 -20 -6 -19 -158 30 -160 52 -454
137 -459 133 -6 -7 222 -90 412 -150 l200 -63 3 -52 3 -53 -33 5 c-18 4 -224
22 -458 41 -234 20 -431 37 -437 40 -10 3 -13 90 -13 386 0 362 1 381 18 368
9 -7 51 -45 92 -84z m-1153 73 c-2 -7 -10 -29 -17 -49 l-13 -36 -41 15 c-33
11 -87 13 -291 8 -137 -3 -296 -12 -352 -19 -84 -11 -100 -11 -91 0 35 43 372
88 677 92 103 1 132 -2 128 -11z m241 -24 c98 -20 96 -18 87 -155 -3 -52 -8
-286 -11 -521 -4 -342 -7 -428 -18 -437 -12 -10 -417 -61 -482 -61 -16 0 -29
13 -47 45 l-25 44 31 5 c18 3 113 12 212 21 99 9 203 19 230 23 l50 7 8 240
c12 332 13 585 4 617 -8 31 -39 42 -142 52 -124 13 -133 16 -139 42 -4 15 1
39 15 65 l21 42 61 -7 c34 -3 99 -13 145 -22z m-538 -94 c10 0 31 7 46 15 38
20 156 20 193 0 16 -8 30 -12 33 -10 2 2 4 -5 5 -15 2 -18 -5 -20 -60 -20 -57
1 -60 2 -43 15 11 8 16 15 10 15 -5 0 -37 -29 -70 -64 l-62 -63 -288 -6 c-167
-4 -338 -13 -404 -21 -140 -19 -150 -19 -150 -3 0 30 61 96 103 111 100 36
658 85 665 59 2 -7 12 -13 22 -13z m989 -26 c63 -18 117 -36 120 -40 10 -10
10 -766 0 -806 -8 -32 -14 -37 -47 -42 -33 -5 -234 -26 -251 -26 -4 0 -6 866
-1 952 0 10 47 0 179 -38z m745 -124 c6 0 -5 16 -24 35 -37 38 -33 46 8 16 38
-27 190 -102 387 -192 l170 -77 3 -72 3 -71 -48 25 c-122 62 -607 388 -644
432 -7 9 20 -8 61 -39 41 -31 79 -57 84 -57z m-1518 75 c18 -13 17 -14 -18
-13 -26 1 -47 -7 -72 -25 -51 -39 -56 -33 -11 13 41 42 69 49 101 25z m329 -2
c12 -4 15 -25 15 -94 0 -103 -14 -118 -24 -27 -8 82 -22 95 -116 108 -119 17
-114 34 8 26 57 -4 109 -9 117 -13z m-192 -30 c-7 -2 -21 -2 -30 0 -10 3 -4 5
12 5 17 0 24 -2 18 -5z m41 -20 c-17 -12 -18 -26 -15 -148 1 -81 -1 -135 -7
-135 -5 0 -12 62 -15 138 -4 113 -2 140 10 154 8 9 22 14 30 11 14 -5 13 -8
-3 -20z m-124 6 c11 -7 -1 -9 -44 -7 l-60 3 -18 -60 c-34 -109 -70 -257 -64
-262 3 -3 38 -1 78 5 122 19 221 25 213 13 -3 -6 -32 -12 -63 -12 -31 -1 -47
-4 -34 -6 12 -3 22 -12 22 -21 0 -23 -17 -48 -26 -39 -4 4 -2 13 4 19 7 7 12
16 12 20 0 13 -68 9 -107 -7 -40 -17 -63 -19 -63 -7 0 5 21 13 48 19 l47 11
-55 -5 c-30 -3 -62 -10 -70 -15 -12 -8 -11 -8 3 -4 10 3 17 3 15 -1 -24 -49
-33 -63 -44 -67 -16 -6 -20 29 -4 39 6 3 10 23 10 43 0 20 13 84 29 142 16 58
32 121 36 140 13 62 21 70 73 70 26 0 54 -5 62 -11z m228 -152 c2 -93 -1 -136
-8 -132 -6 4 -10 53 -10 121 0 74 -4 113 -10 109 -6 -4 -10 -55 -10 -121 l0
-114 -25 0 -25 0 0 141 0 140 43 -3 42 -3 3 -138z m-235 80 c6 -23 4 -56 -4
-94 -14 -63 -17 -57 -21 60 -4 82 10 100 25 34z m-1124 23 c25 0 54 -7 64 -14
16 -13 15 -20 -22 -122 -53 -147 -51 -144 -66 -144 -10 0 -14 31 -16 123 -4
126 -11 151 -47 160 -9 2 -4 3 12 1 16 -2 49 -4 75 -4z m968 -7 c-89 -322 -90
-331 -84 -473 2 -74 2 -162 -2 -195 -6 -54 -7 -46 -14 75 -9 161 -19 204 -57
242 -22 22 -25 28 -11 28 37 0 61 31 85 113 14 45 35 115 46 155 12 39 26 72
32 72 5 0 7 -8 5 -17z m-588 -139 c-23 -71 -44 -124 -46 -118 -5 16 75 259 84
251 2 -2 -15 -62 -38 -133z m1223 -141 c1 -153 2 -321 2 -373 l1 -95 -32 -3
-33 -3 0 201 c0 169 -2 202 -15 206 -13 5 -15 34 -15 175 l0 169 45 0 45 0 2
-277z m-1720 137 c-3 -105 -6 -130 -18 -130 -11 0 -14 23 -14 130 0 117 2 130
18 130 15 0 17 -12 14 -130z m35 -52 c-2 -35 -3 -9 -3 57 0 66 1 94 3 63 2
-32 2 -86 0 -120z m362 153 c17 -5 28 -17 34 -41 9 -37 1 -147 -13 -169 -6
-10 -42 -15 -129 -19 l-121 -5 1 29 c0 16 9 54 19 84 11 30 17 44 15 30 -14
-68 -17 -118 -7 -124 7 -4 13 3 16 16 3 13 15 65 26 116 l22 92 57 -1 c31 -1
67 -4 80 -8z m-182 -53 c-3 -8 -6 -5 -6 6 -1 11 2 17 5 13 3 -3 4 -12 1 -19z
m1063 -103 c0 -25 -4 -45 -10 -45 -11 0 -14 73 -3 83 11 12 13 8 13 -38z
m-580 -60 c32 -18 25 -18 -25 0 -22 8 -31 14 -20 14 11 0 31 -6 45 -14z m740
-10 c-11 -14 -7 -19 13 -16 4 0 7 -6 7 -14 0 -10 -11 -15 -35 -15 -32 0 -35 2
-35 30 0 27 3 30 31 30 27 0 30 -2 19 -15z m-80 -39 c0 -34 10 -37 74 -30 42
5 57 11 61 25 4 11 13 19 21 19 12 0 14 -34 14 -209 0 -116 -3 -212 -7 -214
-5 -3 -54 -8 -110 -12 l-103 -7 0 154 0 153 40 25 c48 30 46 39 -3 10 l-35
-21 -6 23 c-16 62 -4 108 30 108 19 0 24 -5 24 -24z m-1317 7 c-7 -2 -19 -2
-25 0 -7 3 -2 5 12 5 14 0 19 -2 13 -5z m848 -46 c38 -26 71 -99 53 -117 -6
-6 -116 -31 -245 -55 -273 -51 -487 -97 -472 -102 6 -2 60 7 119 21 60 14 197
41 304 61 107 20 220 42 250 49 30 8 56 13 58 12 1 -2 5 -63 9 -137 l6 -134
-24 18 c-58 42 -92 52 -184 51 -191 -2 -418 -89 -495 -189 -8 -11 5 -3 30 18
92 78 268 141 428 154 92 6 146 -6 188 -44 16 -16 23 -23 15 -17 -62 45 -132
59 -221 45 -131 -21 -248 -108 -309 -229 -17 -34 -31 -64 -31 -67 0 -3 39 35
88 83 95 97 174 143 274 162 102 20 173 -6 256 -94 58 -61 120 -182 153 -301
24 -87 49 -243 49 -312 0 -49 -2 -53 -23 -53 -22 0 -23 3 -24 88 -2 109 -24
206 -68 298 -89 184 -240 201 -379 42 -26 -29 -61 -81 -79 -115 -21 -42 -38
-63 -50 -63 -19 0 -19 19 0 84 8 30 -15 9 -37 -33 l-19 -38 -80 -7 c-76 -7
-288 -1 -359 10 l-33 5 18 31 c28 47 92 117 123 133 21 11 57 13 169 8 78 -3
144 -9 146 -13 7 -12 -141 -20 -230 -14 l-82 7 -42 -38 c-39 -36 -78 -92 -69
-101 2 -2 85 -6 184 -9 199 -7 212 -4 251 54 26 39 29 78 9 106 -12 16 -34 21
-147 29 -74 5 -151 6 -173 2 -52 -10 -123 -82 -166 -169 -32 -65 -43 -77 -54
-58 -6 9 15 315 35 531 7 79 16 121 27 133 15 16 15 17 0 12 -11 -4 -18 0 -23
15 -11 36 -48 50 -161 61 -60 6 -125 13 -144 16 l-35 6 54 24 c107 48 296 94
548 133 l118 19 -95 -5 c-178 -10 -423 -60 -588 -119 -75 -27 -97 -31 -87 -15
21 34 244 118 370 139 28 5 233 9 456 10 l406 1 34 -23z m-1186 -61 c-126 -48
-170 -72 -173 -94 -3 -17 -10 -22 -31 -22 -16 0 -57 -3 -92 -6 -42 -4 -61 -3
-54 3 21 21 333 133 365 132 8 -1 2 -6 -15 -13z m1573 -155 c1 -85 -2 -159 -6
-163 -6 -6 -7 37 -4 105 2 63 2 135 -2 160 l-7 46 -67 4 -67 4 75 -1 75 -1 3
-154z m-78 -21 l0 -150 -47 0 c-37 0 -53 6 -75 27 -28 26 -28 29 -28 144 0
133 -5 126 93 128 l57 1 0 -150z m1565 60 c165 -11 344 -23 398 -26 72 -5 97
-10 97 -20 0 -10 -14 -14 -42 -16 l-43 -1 40 -6 c28 -4 41 -11 43 -24 3 -14
-2 -18 -20 -15 -13 2 -22 9 -21 16 2 9 -43 12 -190 14 -105 0 -205 2 -222 3
-16 1 -112 2 -212 3 -160 2 -183 4 -183 18 0 14 23 15 223 11 205 -5 210 -5
67 3 -426 25 -380 19 -380 47 l0 26 73 -7 c39 -3 207 -15 372 -26z m-2900 -40
c43 -5 90 -17 103 -26 25 -16 25 -18 18 -118 -3 -55 -13 -207 -22 -336 -8
-129 -19 -239 -23 -243 -9 -9 -230 13 -446 44 -202 29 -208 31 -216 59 -10 35
-9 387 0 489 7 68 13 88 29 102 28 22 109 34 128 18 27 -22 15 -36 -36 -43
-109 -14 -108 -14 -112 -308 -3 -253 -1 -268 48 -268 l24 0 0 261 0 261 -22
-5 c-19 -5 -20 -4 -7 9 9 8 42 19 74 24 49 8 62 7 74 -5 14 -13 12 -15 -12
-15 l-27 0 0 -275 0 -275 24 0 c13 0 31 -3 40 -6 14 -6 16 22 16 265 0 264 1
271 20 271 19 0 20 -8 22 -270 2 -169 7 -271 13 -273 6 -1 11 95 13 271 2 188
6 272 13 272 8 0 10 -80 8 -272 l-4 -272 36 -6 37 -6 6 59 c3 33 6 164 6 291
l0 231 -97 -2 c-54 -1 -90 1 -80 4 9 2 18 12 18 21 1 15 2 15 6 0 5 -21 53
-25 53 -5 0 9 3 8 9 -2 7 -10 16 -11 37 -4 43 15 238 -9 264 -32 11 -10 20
-23 20 -28 0 -6 -9 -2 -19 7 -11 10 -38 20 -60 23 l-41 6 0 -140 c0 -77 -3
-207 -7 -290 l-6 -151 41 -4 c54 -5 80 6 86 34 12 56 26 540 16 558 -12 22
-57 35 -152 44 -41 4 -69 3 -73 -4 -12 -19 -26 -11 -15 9 15 28 14 29 -30 29
-37 1 -40 -2 -41 -26 l-1 -27 -7 25 c-4 14 -15 26 -24 28 -13 3 -17 -4 -19
-30 l-1 -33 -4 33 c-3 24 -9 32 -24 32 -10 0 -19 -6 -20 -12 0 -10 -2 -10 -6
0 -2 6 -11 12 -19 12 -10 0 -11 -6 -3 -26 16 -43 2 -39 -21 5 -22 43 -22 43
25 55 28 7 277 -2 370 -14z m2504 4 c46 -10 40 -34 -9 -34 -33 0 -40 3 -40 20
0 22 3 23 49 14z m330 -170 c13 -9 29 -32 37 -50 21 -50 33 -157 26 -222 -6
-52 -7 -46 -12 58 -4 82 -11 126 -24 153 -54 111 -134 43 -137 -117 -2 -57 -2
-58 -9 -21 l-7 40 -2 -42 c0 -24 -6 -43 -12 -43 -8 0 -9 18 -5 58 11 93 34
159 62 181 32 25 52 26 83 5z m369 -96 c5 -114 -19 -172 -49 -116 -17 32 -16
192 1 213 25 31 43 -5 48 -97z m96 86 c23 -59 12 -205 -14 -189 -11 7 -24 148
-16 180 7 28 21 33 30 9z m-215 -130 c-6 -8 -29 -14 -50 -14 -32 0 -39 3 -39
20 0 17 7 20 40 20 35 0 40 3 40 23 0 12 4 33 8 47 5 20 8 13 10 -28 2 -31 -2
-60 -9 -68z m-501 71 c31 -26 55 -75 66 -135 4 -22 -3 -10 -18 30 -70 183
-196 122 -196 -96 0 -42 -5 -76 -11 -80 -8 -4 -9 19 -5 82 4 65 3 81 -4 59 -6
-16 -11 -56 -12 -87 -2 -34 -7 -53 -12 -48 -15 15 11 165 39 219 42 83 97 103
153 56z m-241 -19 c-12 -13 -38 -26 -57 -28 -19 -3 -80 -13 -135 -22 -99 -17
-102 -17 -149 4 -62 26 -54 36 13 16 28 -8 51 -11 51 -7 0 5 41 12 91 16 55 4
86 11 78 16 -18 11 0 17 61 22 25 2 50 4 57 5 7 1 2 -9 -10 -22z m75 -3 c-10
-16 -24 -41 -30 -58 -9 -26 -11 -27 -11 -7 -1 35 26 92 44 92 14 0 14 -3 -3
-27z m418 23 c0 -2 7 -32 16 -67 19 -74 12 -157 -16 -191 l-19 -23 -15 37
c-29 69 -15 248 19 248 8 0 15 -2 15 -4z m-975 -46 c4 -6 -5 -10 -19 -10 -14
0 -26 5 -26 10 0 6 9 10 19 10 11 0 23 -4 26 -10z m1095 -20 c0 -5 -4 -10 -10
-10 -5 0 -10 5 -10 10 0 6 5 10 10 10 6 0 10 -4 10 -10z m-390 -38 c19 -40 24
-179 8 -227 -17 -51 -48 -59 -68 -18 -16 33 -22 203 -8 203 6 0 7 7 4 16 -8
22 20 65 38 58 7 -3 19 -17 26 -32z m-277 -1 c9 -16 17 -47 17 -69 l0 -41 -77
-16 c-43 -9 -84 -18 -90 -20 -7 -3 -13 4 -13 14 0 10 -13 43 -28 73 l-28 56
96 15 c52 8 97 15 100 16 3 0 13 -12 23 -28z m57 -22 c13 -47 4 -120 -17 -146
-13 -17 -13 -16 -4 4 14 27 14 117 2 161 -6 19 -6 30 -1 27 5 -3 14 -24 20
-46z m-438 -26 c24 -27 48 -87 48 -122 0 -28 -3 -30 -57 -41 -32 -7 -62 -14
-68 -17 -7 -2 -11 15 -11 47 0 41 -5 55 -28 79 -16 16 -41 35 -57 42 -17 6
-27 14 -24 17 11 11 150 29 165 21 8 -4 23 -16 32 -26z m166 -13 c40 -80 19
-190 -43 -218 -33 -15 -38 -12 -29 22 4 19 13 26 29 26 13 0 31 7 39 16 30 29
12 138 -31 186 -14 16 -14 20 -3 16 8 -2 25 -24 38 -48z m1004 15 c4 -36 1
-39 -26 -29 -24 9 -21 64 3 64 14 0 20 -9 23 -35z m-1056 -12 c22 -33 39 -107
29 -124 -12 -19 -35 -9 -35 16 0 34 -26 94 -53 123 l-22 24 30 -4 c20 -2 36
-13 51 -35z m-338 1 c12 -4 22 -9 22 -13 0 -4 -95 -22 -211 -41 -178 -29 -212
-32 -219 -20 -5 8 -7 17 -4 19 3 4 343 57 379 60 6 0 20 -2 33 -5z m70 -51 c2
-7 -2 -13 -10 -13 -7 0 -109 -18 -226 -39 -196 -35 -214 -36 -222 -21 -8 15
13 21 203 53 225 37 248 39 255 20z m979 -15 c-3 -7 -5 -2 -5 12 0 14 2 19 5
13 2 -7 2 -19 0 -25z m-3347 -38 c0 -28 -4 -40 -14 -40 -22 0 -28 17 -21 50
10 46 35 38 35 -10z m2410 14 c0 -15 -23 -17 -55 -5 -18 7 -17 9 10 18 34 12
45 8 45 -13z m504 -26 c-3 -13 -7 -24 -8 -24 0 -1 -37 -12 -81 -24 -44 -12
-88 -26 -98 -31 -16 -9 -16 -8 0 26 11 23 26 38 43 41 14 4 45 12 70 19 69 21
83 19 74 -7z m-536 -33 c38 -82 18 -182 -41 -203 -60 -21 -347 -102 -363 -102
-9 0 -14 6 -12 13 5 13 346 109 365 102 19 -6 36 62 31 126 -2 32 -8 62 -12
66 -4 4 -54 -1 -112 -11 -109 -18 -157 -16 -62 3 185 37 192 37 206 6z m-738
-10 c-8 -2 -32 -6 -53 -10 -57 -9 -123 -74 -163 -160 -53 -117 -58 -161 -49
-435 1 -53 25 -102 69 -143 l31 -29 -33 17 c-24 12 -41 33 -61 75 -27 57 -28
62 -26 221 1 148 4 171 27 235 30 83 63 137 109 180 48 45 68 54 119 53 25 -1
38 -3 30 -4z m-1641 -21 c2 -2 2 -7 -2 -10 -8 -9 -47 6 -47 17 0 9 37 3 49 -7z
m1241 -18 c0 -36 -24 -71 -41 -60 -6 3 -18 0 -27 -7 -9 -8 -6 -1 7 13 13 15
24 41 25 58 1 21 6 30 19 30 13 0 17 -8 17 -34z m-282 -18 l-3 -43 -47 -3
c-27 -2 -48 0 -48 5 0 13 74 83 88 83 9 0 12 -12 10 -42z m142 -8 l0 -50 -42
0 c-75 0 -88 8 -88 49 0 21 3 41 7 44 3 4 33 7 65 7 l58 0 0 -50z m75 23 c-3
-16 -18 -39 -32 -53 l-25 -25 5 30 c3 17 9 39 13 49 5 14 4 17 -4 12 -7 -4
-12 -2 -12 3 0 6 14 11 31 11 29 0 31 -2 24 -27z m1380 -19 c-17 -27 -41 -39
-99 -49 -35 -7 -36 -6 -36 24 0 32 -6 29 110 59 41 10 48 1 25 -34z m-2565
-34 c0 -22 -4 -40 -10 -40 -11 0 -13 39 -4 64 10 26 14 19 14 -24z m3339 36
c-9 -9 -112 -46 -116 -42 -2 2 20 13 49 25 51 19 76 26 67 17z m-255 -52 c3
-8 2 -12 -4 -9 -6 3 -10 10 -10 16 0 14 7 11 14 -7z m-1400 -39 c47 -43 70
-110 70 -200 0 -115 -23 -184 -83 -245 -39 -42 -53 -50 -83 -50 -47 0 -80 28
-108 92 -20 46 -22 64 -18 148 5 92 31 186 48 175 5 -3 6 3 3 13 -3 12 9 30
36 55 51 46 95 49 135 12z m-1533 -44 c98 -18 507 -71 546 -71 7 0 24 18 38
40 39 62 46 63 233 52 92 -6 203 -7 247 -3 44 4 82 6 84 4 2 -1 -4 -28 -15
-59 l-19 -56 -310 5 c-229 4 -354 10 -480 26 -229 29 -474 69 -494 82 -20 13
11 9 170 -20z m1819 -17 c0 -13 -4 -24 -10 -24 -5 0 -10 14 -10 31 0 17 4 28
10 24 6 -3 10 -17 10 -31z m429 -9 c-11 -10 -333 -105 -357 -105 -14 0 -23 2
-20 5 9 10 332 104 357 104 13 1 22 -1 20 -4z m-2284 -40 c214 -42 420 -64
853 -93 l113 -7 -67 -67 c-116 -117 -185 -134 -425 -103 -283 35 -534 90 -591
129 -34 22 -41 39 -52 125 l-7 53 28 -7 c15 -4 82 -17 148 -30z m2360 30
c-113 -38 -379 -115 -388 -112 -6 2 62 27 153 56 91 29 170 54 175 56 6 2 24
3 40 3 17 0 26 -1 20 -3z m15 -25 c-8 -5 -99 -36 -201 -69 -193 -63 -195 -63
-278 -35 -32 11 0 14 40 4 41 -10 57 -6 244 54 183 58 234 70 195 46z m-1325
-257 c-3 -17 -13 -34 -22 -37 -13 -6 -15 0 -9 36 4 24 9 63 12 88 3 25 9 52
12 60 9 20 15 -106 7 -147z m112 -75 c-3 -8 -6 -5 -6 6 -1 11 2 17 5 13 3 -3
4 -12 1 -19z m85 -107 l22 -36 -23 20 c-25 21 -61 95 -61 123 0 9 10 -3 21
-27 11 -25 29 -61 41 -80z"/>
<path d="M3250 3587 c-29 -65 -19 -83 57 -107 36 -11 67 -20 70 -20 9 0 -7
101 -18 123 -9 16 -64 47 -84 47 -3 0 -15 -19 -25 -43z"/>
<path d="M1983 3422 c-22 -3 -38 -28 -24 -37 10 -5 59 31 51 37 -3 2 -15 2
-27 0z"/>
<path d="M1881 3409 c-19 -7 -22 -12 -13 -21 9 -9 16 -8 29 5 21 21 15 27 -16
16z"/>
<path d="M1805 3399 c-4 -6 -4 -13 -1 -16 8 -8 36 5 36 17 0 13 -27 13 -35 -1z"/>
<path d="M3191 3315 c-20 -26 -21 -38 -19 -199 l2 -171 5 177 c4 115 10 181
18 189 16 16 158 2 178 -18 13 -12 15 -67 15 -351 0 -185 -4 -343 -8 -350 -5
-7 -41 -15 -89 -19 l-80 -6 -11 29 c-8 22 -11 24 -11 9 -1 -42 12 -47 103 -44
63 3 89 8 96 19 6 9 10 160 10 361 0 391 4 371 -80 383 -25 4 -59 9 -76 12
-26 5 -35 1 -53 -21z"/>
<path d="M3267 3233 c-9 -8 -9 -255 -1 -277 4 -11 19 -16 44 -16 31 0 39 4 44
23 8 32 7 255 -1 260 -17 9 -80 17 -86 10z m81 -145 l-3 -123 -35 0 -35 0 -3
123 -3 122 41 0 41 0 -3 -122z"/>
<path d="M3215 2711 c-8 -17 -14 -43 -14 -58 1 -24 2 -23 8 9 4 20 14 45 22
54 12 15 15 10 19 -52 l5 -69 50 0 50 0 0 70 0 70 -62 3 c-60 3 -63 2 -78 -27z
m135 -46 l0 -55 -45 0 -45 0 0 55 0 55 45 0 45 0 0 -55z"/>
<path d="M4076 3272 c5 -4 27 -21 49 -36 l40 -28 -40 36 c-22 20 -44 36 -49
36 -6 0 -6 -3 0 -8z"/>
<path d="M4170 3206 c0 -2 8 -10 18 -17 15 -13 16 -12 3 4 -13 16 -21 21 -21
13z"/>
<path d="M3030 2700 c0 -153 2 -180 15 -180 13 0 15 27 15 180 0 153 -2 180
-15 180 -13 0 -15 -27 -15 -180z"/>
<path d="M1334 3110 c0 -63 1 -89 3 -57 2 31 2 83 0 115 -2 31 -3 5 -3 -58z"/>
<path d="M2802 2630 c-18 -8 -23 -16 -20 -37 3 -24 8 -28 41 -31 l38 -3 -3 38
c-3 41 -17 49 -56 33z"/>
<path d="M1925 2784 c-110 -26 -182 -54 -206 -81 l-24 -26 25 6 c14 4 77 18
140 33 110 25 140 40 140 71 0 15 2 15 -75 -3z"/>
<path d="M1538 2623 c7 -3 16 -2 19 1 4 3 -2 6 -13 5 -11 0 -14 -3 -6 -6z"/>
<path d="M2320 2312 c0 -5 12 -19 26 -33 15 -13 40 -44 56 -69 39 -59 27 -12
-14 52 -30 47 -68 75 -68 50z"/>
<path d="M4298 2673 c23 -2 61 -2 85 0 23 2 4 4 -43 4 -47 0 -66 -2 -42 -4z"/>
<path d="M727 2583 c-4 -3 -7 -125 -7 -270 l0 -263 24 0 c22 0 23 4 30 92 3
50 6 171 6 270 l0 178 -23 0 c-13 0 -27 -3 -30 -7z"/>
<path d="M1050 2300 l0 -290 24 0 c13 0 31 -3 40 -6 14 -6 16 24 16 290 l0
296 -40 0 -40 0 0 -290z"/>
<path d="M4376 2495 c-10 -26 -6 -174 4 -150 8 18 9 18 10 -5 2 -22 3 -20 12
10 18 64 -5 198 -26 145z m11 -107 c-2 -13 -4 -5 -4 17 -1 22 1 32 4 23 2 -10
2 -28 0 -40z"/>
<path d="M4501 2430 c0 -52 2 -70 9 -60 11 18 11 74 0 110 -6 18 -8 3 -9 -50z"/>
<path d="M4027 2424 c-4 -4 -6 -46 -5 -93 l2 -86 5 75 6 75 9 -48 c8 -45 6
-69 -10 -126 -5 -17 -4 -22 4 -17 23 14 34 86 23 149 -11 61 -22 83 -34 71z"/>
<path d="M3732 2358 c-14 -14 -16 -32 -3 -24 29 18 42 -154 16 -204 -13 -26
-13 -30 -1 -30 24 0 39 66 34 157 -5 89 -21 126 -46 101z"/>
<path d="M3720 2225 c1 -69 3 -86 11 -71 15 25 15 134 1 148 -9 9 -12 -10 -12
-77z"/>
<path d="M1961 1534 c0 -11 3 -14 6 -6 3 7 2 16 -1 19 -3 4 -6 -2 -5 -13z"/>
<path d="M2142 1954 c-26 -26 -29 -30 -8 -15 16 12 42 21 58 21 36 0 84 -45
93 -86 3 -16 9 -40 13 -54 4 -14 5 -43 2 -65 -5 -37 -6 -38 -14 -15 -5 14 -8
39 -8 57 1 27 -3 32 -28 38 -37 8 -70 -2 -70 -21 0 -8 -4 -14 -9 -14 -13 0
-25 -82 -17 -108 4 -11 14 -23 24 -27 14 -5 15 -4 5 6 -7 7 -13 20 -13 28 0
11 3 11 13 -4 8 -10 19 -15 25 -11 13 8 5 85 -11 106 -6 8 -7 12 -3 8 5 -4 15
-3 23 3 15 13 15 12 18 -61 0 -25 -3 -53 -7 -63 -11 -21 17 -36 34 -19 9 9 7
17 -7 32 -22 24 -13 39 10 16 9 -9 21 -14 25 -11 5 3 3 -7 -5 -22 -8 -15 -15
-34 -15 -40 0 -7 -4 -13 -10 -13 -5 0 -10 -6 -10 -13 0 -8 -11 -19 -25 -25
-21 -10 -33 -8 -70 10 -40 20 -43 23 -25 30 19 7 28 46 14 61 -12 12 -44 -14
-44 -35 0 -17 -2 -18 -15 -8 -23 19 -20 -21 5 -69 46 -90 139 -68 208 49 22
37 27 58 29 135 4 104 -12 163 -54 207 -39 41 -83 38 -131 -8z m116 -165 c-3
-8 -7 -3 -11 10 -4 17 -3 21 5 13 5 -5 8 -16 6 -23z m-54 -55 c3 -8 2 -12 -4
-9 -6 3 -10 10 -10 16 0 14 7 11 14 -7z"/>
<path d="M2170 1890 c0 -35 23 -41 40 -10 13 25 5 40 -21 40 -14 0 -19 -7 -19
-30z"/>
<path d="M2245 1880 c-7 -12 2 -30 16 -30 12 0 12 27 0 35 -5 3 -12 1 -16 -5z"/>
<path d="M2103 1844 c-7 -18 6 -45 25 -52 18 -6 36 37 21 54 -15 19 -38 18
-46 -2z"/>
<path d="M2077 1753 c-10 -9 -9 -51 1 -57 5 -3 18 -2 30 1 16 4 22 13 22 34 0
24 -4 29 -23 29 -13 0 -27 -3 -30 -7z"/>
<path d="M2177 1644 c-4 -4 -7 -16 -7 -26 0 -13 7 -18 26 -18 21 0 25 4 22 22
-3 23 -27 35 -41 22z"/>
<path d="M695 1788 c-8 -19 11 -68 26 -68 8 0 9 11 5 32 -8 40 -23 57 -31 36z"/>
<path d="M730 1787 c0 -7 11 -30 23 -52 20 -34 29 -41 67 -47 25 -4 88 -14
140 -23 94 -15 95 -15 113 6 9 12 17 29 17 39 0 20 -23 27 -210 60 -63 11
-123 22 -132 24 -10 2 -18 -1 -18 -7z"/>
<path d="M1150 1714 c-15 -17 -9 -44 12 -58 24 -14 53 13 44 42 -8 25 -41 35
-56 16z"/>
</g>
</svg>