<svg width="100" height="100" viewBox="0 0 100 100" fill="none" xmlns="http://www.w3.org/2000/svg">
<path d="M42.4049 46.7167C42.9643 45.843 42.5988 42.9877 42.5988 42.9877C21.5552 35.7391 5.81205 26.6517 6.70363 22.9583C7.14273 21.1328 7.75124 20.3326 8.17251 20.1921C9.11536 19.8845 11.244 21.0013 13.8519 22.7198L18.1872 17.6288C16.1366 16.3695 11.0813 12.2102 6.11518 13.8285C4.08683 14.4838 1.41877 16.3294 0.201757 21.3935C-2.65131 33.2516 25.6342 43.9551 40.8067 49.2199C40.8067 49.2199 41.8454 47.5927 42.4049 46.7167Z" fill="black"/>
<path d="M91.6381 23.7317C90.9427 22.7532 90.216 21.797 89.4537 20.8764C81.0907 10.8439 68.5104 4.44455 54.4569 4.44455C54.4323 4.44455 54.4123 4.44678 54.39 4.44678C54.3744 4.44678 54.361 4.44455 54.3476 4.44455C54.2964 4.44455 54.2451 4.45124 54.1916 4.45124C40.2472 4.53148 27.774 10.9108 19.4644 20.8787C18.6977 21.7992 17.971 22.7532 17.2801 23.7317C16.754 24.4762 16.2636 25.2496 15.78 26.0253C16.7317 26.6271 17.8083 27.2669 19.0097 27.94C19.4243 27.278 19.8389 26.6138 20.2891 25.9763C23.1222 27.8687 26.3943 29.5203 30.0163 30.8845C29.8157 31.6089 29.6641 32.3712 29.4858 33.1134C30.5936 33.5971 31.7594 34.083 32.9474 34.5667C33.1346 33.7308 33.304 32.8861 33.518 32.0769C39.271 33.8401 45.7349 34.8988 52.5912 35.0638V39.8137L52.823 39.9608L53.1485 41.9133L53.6522 44.9046L56.327 45.5978V35.0638C57.6554 35.0325 58.9504 34.9389 60.241 34.8431L61.2195 32.0703L61.5962 31.0004C59.871 31.1653 58.119 31.2857 56.327 31.328V8.34746C63.9143 9.51989 70.4474 17.377 74.1609 28.6243C72.3643 29.157 70.4652 29.5894 68.5238 29.9728C69.7921 30.6103 71.0537 31.5977 71.9497 32.9953C73.0441 32.7233 74.1452 32.4559 75.2018 32.1371C76.5971 37.451 77.4062 43.3599 77.4419 49.6144H71.6488C71.5886 49.9933 71.5285 50.35 71.4638 50.7467C73.7329 51.6784 76.4299 52.7884 77.0139 53.0292C78.7458 53.7447 80.0386 54.8212 80.9035 56.1319C80.977 55.2091 81.0572 54.2908 81.0996 53.3501H90.0689C89.9107 54.5092 89.7613 55.6749 89.5563 56.7894C90.1246 56.4974 90.6217 55.9268 90.8803 54.8524C91.0207 54.2729 91.0363 53.7892 91.0073 53.3501H96.1317C95.521 61.0088 92.8261 68.0769 88.6335 74.0193C85.7514 72.0957 82.4125 70.4106 78.7079 69.0353C78.9108 68.2953 79.0779 67.5263 79.2562 66.7662C78.0704 67.6957 76.5837 68.2151 74.9031 68.2151C74.1675 68.2151 73.5479 68.1192 73.1311 68.0613L73.004 68.0367C72.5582 68.0055 71.9319 67.9543 68.1427 66.657C68.5884 66.0552 69.1189 65.2684 69.7007 64.35V62.4822C71.4616 63.0862 72.9617 63.5744 73.3138 63.5989C74.2879 63.6658 76.7888 64.5217 77.5065 61.546C78.2265 58.5681 76.3564 57.5852 75.3177 57.1527C74.727 56.9142 71.9854 55.7864 69.7007 54.8458V51.0632L68.399 54.3108C67.2667 53.845 66.4531 53.5106 66.4531 53.5106C66.4531 53.5106 69.275 37.948 68.5037 35.9776C67.7325 34.0072 65.4211 33.5592 65.4211 33.5592L59.2736 50.9718L52.5912 49.2444L49.7315 48.5021L48.7529 42.6556L45.6346 40.6607C45.6324 40.6607 45.8174 45.4797 45.3582 48.0786C45.2713 48.569 45.1599 48.9814 45.0217 49.2645C44.9704 49.3737 44.8768 49.5052 44.801 49.6255C44.4756 50.165 43.9651 50.8091 43.399 51.4622C43.3968 51.4667 43.3923 51.4667 43.3901 51.4711C43.1226 51.7809 42.8417 52.0863 42.5631 52.385C42.5319 52.4207 42.5029 52.4519 42.4717 52.4853C42.2065 52.7639 41.9457 53.0359 41.6938 53.29C40.8446 54.157 40.1648 54.7967 40.1648 54.7967L42.8908 56.8117L47.4289 53.3501L48.4587 52.5633L50.0881 53.3501L54.2184 55.3361L56.3203 56.3503L56.7906 56.5777L49.9388 73.6604C49.9388 73.6604 52.1855 75.6776 53.8751 74.3759C55.5669 73.0742 62.7731 60.008 62.7731 60.008C62.7731 60.008 64.0325 60.4694 65.6841 61.0668L65.3007 62.023C65.5236 62.0163 65.7354 61.9896 65.9605 61.9851V65.9036C65.7956 65.8457 65.6418 65.79 65.4679 65.7298C65.2272 65.6941 64.9731 65.674 64.7346 65.6384C63.999 66.9379 63.3259 68.1014 62.7196 69.1334C66.7674 69.5859 70.6279 70.3303 74.1675 71.3757C70.4519 82.6275 63.9099 90.4779 56.3225 91.6526V78.0871C55.2236 78.8516 53.9442 79.2729 52.5868 79.2729V91.6793C44.9214 90.6272 38.2991 82.759 34.5456 71.4359C38.3682 70.2835 42.5676 69.4766 46.9921 69.0375L48.5434 65.1658C43.1872 65.5782 38.1052 66.5121 33.4957 67.9275C32.3166 63.4473 31.5632 58.5325 31.3314 53.3524H35.1875L36.1682 52.434C33.119 51.3886 30.2414 50.341 27.531 49.2823C27.5288 49.3937 27.5199 49.5029 27.5199 49.6122H12.6483C12.6683 47.2963 12.8912 45.0294 13.2791 42.8183C12.0777 42.1719 10.9342 41.5255 9.85539 40.8746C9.25135 43.8258 8.89917 46.8683 8.89917 49.9978C8.89917 59.7762 12.0086 68.8347 17.2711 76.2616C17.9643 77.2401 18.691 78.1963 19.4555 79.1147C27.7673 89.0826 40.2383 95.4618 54.1827 95.5421C54.2362 95.5421 54.2875 95.5488 54.3387 95.5488C54.3521 95.5488 54.3655 95.5465 54.3811 95.5465C54.4078 95.5465 54.4279 95.5488 54.4479 95.5488C68.5015 95.5488 81.0818 89.1494 89.4448 79.1191C90.2116 78.1986 90.9382 77.2423 91.627 76.2661C96.8895 68.8347 99.9989 59.7784 99.9989 49.9978C100.008 40.2238 96.9007 31.1608 91.6381 23.7317ZM31.0751 27.3984C27.8631 26.1992 24.9722 24.7548 22.4802 23.121C27.3661 17.3168 33.7966 12.8455 41.1411 10.3714C36.9551 14.4102 33.4757 20.3147 31.0751 27.3984ZM52.5868 31.3302C46.0827 31.172 39.9597 30.1912 34.5545 28.5686C38.3081 17.2455 44.9191 9.37055 52.5868 8.31848V31.3302ZM12.7887 53.3524H27.5957C27.8386 58.9493 28.6856 64.2609 30.0141 69.1156C26.392 70.4752 23.1177 72.1336 20.2891 74.0215C16.0965 68.0769 13.3994 61.0111 12.7887 53.3524ZM22.4914 76.8723C24.9811 75.243 27.8676 73.8008 31.0728 72.6016C33.4712 79.6897 36.9551 85.5898 41.1433 89.6264C33.7966 87.1523 27.3817 82.6765 22.4914 76.8723ZM67.4361 89.7423C71.6889 85.6856 75.2241 79.7165 77.6447 72.5325C80.928 73.7451 83.8791 75.2095 86.4201 76.8723C81.4585 82.7635 74.9209 87.2905 67.4361 89.7423ZM67.4361 10.2577C74.9187 12.7095 81.4629 17.2299 86.4268 23.1232C84.2447 24.552 81.7415 25.8225 79.0066 26.9258C78.8796 26.8902 78.7904 26.8701 78.7904 26.8701L78.7347 27.035C78.3714 27.1799 78.0169 27.3315 77.6425 27.4697C75.2196 20.288 71.6889 14.3144 67.4361 10.2577ZM81.1709 49.6166C81.1397 42.9587 80.2504 36.6485 78.7012 30.9602C82.3991 29.585 85.7403 27.9043 88.6223 25.9807C93.3477 32.6855 96.1785 40.8212 96.2587 49.6166H81.1709Z" fill="black"/>
</svg>
