<svg width="100" height="100" viewBox="0 0 100 100" fill="none" xmlns="http://www.w3.org/2000/svg">
<g clip-path="url(#clip0_165_150)">
<path d="M65.625 9.375H34.375C30.2324 9.37971 26.2609 11.0274 23.3317 13.9567C20.4024 16.8859 18.7547 20.8574 18.75 25V62.5C18.7616 65.8588 19.8574 69.1241 21.8743 71.8099C23.8912 74.4957 26.7214 76.4585 29.9437 77.4062L24.2791 90.625H31.0784L36.4356 78.125H63.5644L68.9216 90.625H75.7209L70.0562 77.4062C73.2786 76.4585 76.1088 74.4957 78.1257 71.8099C80.1426 69.1241 81.2384 65.8588 81.25 62.5V25C81.2453 20.8574 79.5976 16.8859 76.6683 13.9567C73.7391 11.0274 69.7676 9.37971 65.625 9.375ZM34.375 15.625H65.625C67.5575 15.6308 69.4408 16.2348 71.0162 17.3538C72.5917 18.4729 73.7822 20.0522 74.4241 21.875H25.5759C26.2179 20.0522 27.4083 18.4729 28.9838 17.3538C30.5593 16.2348 32.4425 15.6308 34.375 15.625ZM75 59.375H65.625V65.625H74.4241C73.7822 67.4478 72.5917 69.0271 71.0162 70.1462C69.4408 71.2652 67.5575 71.8692 65.625 71.875H34.375C32.4425 71.8692 30.5593 71.2652 28.9838 70.1462C27.4083 69.0271 26.2179 67.4478 25.5759 65.625H34.375V59.375H25V53.125H75V59.375ZM75 46.875H25V28.125H75V46.875Z" fill="black"/>
</g>
<defs>
<clipPath id="clip0_165_150">
<rect width="100" height="100" fill="white"/>
</clipPath>
</defs>
</svg>
