<svg width="100" height="100" viewBox="0 0 100 100" fill="none" xmlns="http://www.w3.org/2000/svg">
<g clip-path="url(#clip0_166_168)">
<path d="M66.6667 25L79.1667 41.6667H87.5001C92.1251 41.6667 95.8334 45.375 95.8334 50V62.5H87.5001C87.5001 69.4167 81.9167 75 75.0001 75C68.0834 75 62.5001 69.4167 62.5001 62.5H37.5001C37.5001 69.4167 31.9167 75 25.0001 75C18.0834 75 12.5001 69.4167 12.5001 62.5H4.16675V50C4.16675 45.375 7.87508 41.6667 12.5001 41.6667L25.0001 25H66.6667ZM43.7501 31.25H28.1251L20.2501 41.6667H43.7501V31.25ZM50.0001 31.25V41.6667H71.4167L63.5417 31.25H50.0001ZM25.0001 56.25C21.5417 56.25 18.7501 59.0417 18.7501 62.5C18.7501 65.9583 21.5417 68.75 25.0001 68.75C28.4584 68.75 31.2501 65.9583 31.2501 62.5C31.2501 59.0417 28.4584 56.25 25.0001 56.25ZM75.0001 56.25C71.5417 56.25 68.7501 59.0417 68.7501 62.5C68.7501 65.9583 71.5417 68.75 75.0001 68.75C78.4584 68.75 81.2501 65.9583 81.2501 62.5C81.2501 59.0417 78.4584 56.25 75.0001 56.25Z" fill="black"/>
</g>
<defs>
<clipPath id="clip0_166_168">
<rect width="100" height="100" fill="white"/>
</clipPath>
</defs>
</svg>
