<svg width="100" height="100" viewBox="0 0 100 100" fill="none" xmlns="http://www.w3.org/2000/svg">
<path d="M20.8335 16.6667C13.93 16.6667 8.33354 22.2631 8.33354 29.1667L8.3335 70.8333C8.3335 77.7371 13.93 83.3333 20.8335 83.3333H33.3335C35.6347 83.3333 37.5002 81.4679 37.5002 79.1667C37.5002 76.8654 35.6347 75 33.3335 75H20.8335C18.5323 75 16.6668 73.1346 16.6668 70.8333V29.1667C16.6668 26.8655 18.5323 25 20.8335 25H79.1668C81.4681 25 83.3335 26.8655 83.3335 29.1667V70.8333C83.3335 73.1346 81.4681 75 79.1668 75H58.3447L63.6756 69.6504C65.306 68.0146 65.306 65.3625 63.6756 63.7267C62.0456 62.0913 59.4027 62.0913 57.7727 63.7267L48.3072 73.225L48.2522 73.2804C45.0168 76.5517 45.0239 81.8358 48.2747 85.0975L57.7518 94.6075C59.3806 96.2421 62.0218 96.2421 63.651 94.6075C65.2802 92.9725 65.2802 90.3221 63.651 88.6875L58.3152 83.3333H79.1668C86.0706 83.3333 91.6668 77.7371 91.6668 70.8333V29.1667C91.6668 22.2631 86.0706 16.6667 79.1668 16.6667H20.8335Z" fill="#0F0F0F"/>
</svg>
