<svg width="102" height="100" viewBox="0 0 102 100" fill="none" xmlns="http://www.w3.org/2000/svg">
<path d="M17.3611 31.9444L33.3333 36.5555L50.8888 23.8055L25.6944 24.5278C25.4477 24.5412 25.2086 24.6177 24.9999 24.75L17.0277 29.3333C16.7797 29.4707 16.5787 29.6794 16.4505 29.9323C16.3224 30.1852 16.2731 30.4707 16.309 30.7519C16.3449 31.0331 16.4644 31.2971 16.6519 31.5097C16.8395 31.7223 17.0865 31.8737 17.3611 31.9444Z" fill="black"/>
<path d="M95.8889 17.6667L78.3889 13.8889C76.9171 13.5694 75.3938 13.5702 73.9224 13.8913C72.451 14.2125 71.0659 14.8464 69.8611 15.75L17 54.1667L4.30553 53.6111C3.57841 53.5864 2.86189 53.7907 2.25715 54.1952C1.6524 54.5997 1.18999 55.1839 0.935209 55.8654C0.680424 56.5468 0.646138 57.2911 0.837191 57.9931C1.02824 58.6951 1.43498 59.3194 1.99998 59.7778L14.3611 69.5833C14.5646 69.7475 14.8068 69.8567 15.0646 69.9005C15.3223 69.9442 15.587 69.9211 15.8333 69.8333C19.3611 68.4722 32.5 61.5 48.0278 52.9722L51.1389 84.9444C51.1653 85.2213 51.2668 85.4858 51.4324 85.7092C51.5981 85.9327 51.8216 86.1067 52.0788 86.2125C52.3361 86.3182 52.6174 86.3517 52.8923 86.3094C53.1672 86.2671 53.4253 86.1505 53.6389 85.9722L60.5833 80.1944C60.9635 79.8756 61.2192 79.433 61.3055 78.9444L67.8889 42.0278C79 35.8611 89.6111 29.8889 97.0833 25.6667C97.8587 25.2447 98.4857 24.5946 98.8793 23.8044C99.2729 23.0142 99.4141 22.1221 99.2838 21.249C99.1534 20.3758 98.7578 19.5639 98.1505 18.9231C97.5433 18.2823 96.7537 17.8437 95.8889 17.6667Z" fill="black"/>
<path fill-rule="evenodd" clip-rule="evenodd" d="M84 74C92.2843 74 99 67.2843 99 59C99 50.7157 92.2843 44 84 44C75.7157 44 69 50.7157 69 59C69 67.2843 75.7157 74 84 74ZM82.125 49.625V59.7766L88.2992 65.9508L90.9508 63.2992L85.875 58.2234V49.625H82.125Z" fill="black"/>
</svg>
