<svg width="100" height="100" viewBox="0 0 100 100" fill="none" xmlns="http://www.w3.org/2000/svg">
<path d="M81.5173 7.17343H66.0445C64.9587 5.97884 63.402 5.21203 61.6609 5.21203H55.7007V4.20205C55.7005 2.01551 52.7719 0 50.0003 0C47.2285 0 44.2999 2.01551 44.2999 4.20205V5.21203H38.3395C36.5984 5.21203 35.0419 5.97884 33.9559 7.17343H18.4764C16.8352 7.17343 15.519 8.50156 15.519 10.1359V97.0359C15.519 98.667 16.832 100 18.4764 100H81.5174C83.155 100 84.4813 98.6773 84.4813 97.0359V10.1359C84.4809 8.50156 83.1546 7.17343 81.5173 7.17343ZM78.5467 94.0755H21.4373V13.0982H30.0061L32.7358 13.0988C33.5405 15.4369 35.7292 17.1298 38.3425 17.1298H50.0003H61.658C64.2714 17.1298 66.4601 15.4369 67.2648 13.0988H69.9945L78.5469 13.0982L78.5467 94.0755Z" fill="#010002"/>
<path d="M78.5467 94.0755H21.4373V13.0982H30.0061L32.7358 13.0988C33.5405 15.4369 35.7292 17.1298 38.3425 17.1298H50.0003H61.658C64.2714 17.1298 66.4601 15.4369 67.2648 13.0988H69.9945L78.5469 13.0982L78.5467 94.0755Z" fill="#010002"/>
<path d="M63.6882 63.6364C57.4947 68.4622 52.4456 74.4226 47.3376 80.3246C45.1518 78.0088 43.1639 75.5505 41.883 72.5868C40.4332 69.2075 34.9237 74.1237 36.2302 77.1662C38.0169 81.2975 41.1988 84.6569 44.3313 87.8221C45.609 89.1222 47.8042 87.6535 48.6864 86.6481C54.2899 80.2855 59.5173 73.5891 66.2431 68.3483C69.47 65.8381 67.5338 60.6399 63.6882 63.6364Z" fill="white"/>
<path d="M73.0279 23.2673H26.9722V27.8732H73.0279V23.2673Z" fill="white"/>
<path d="M73.0279 33.3995H26.9722V38.0054H73.0279V33.3995Z" fill="white"/>
<path d="M73.0279 43.5318H26.9722V48.1377H73.0279V43.5318Z" fill="white"/>
<path d="M73.0279 53.664H26.9722V58.2699H73.0279V53.664Z" fill="white"/>
</svg>
