<svg width="100" height="100" viewBox="0 0 100 100" fill="none" xmlns="http://www.w3.org/2000/svg">
<g clip-path="url(#clip0_164_58)">
<path d="M99.0172 59.0606C97.6632 56.6568 95.1063 55.1637 92.3443 55.1637C91.0397 55.1637 89.7442 55.5047 88.5986 56.1498L66.3026 68.706C66.0115 68.8698 65.8015 69.147 65.7217 69.4714C65.3329 71.0588 64.4174 73.2751 62.2669 74.8185C59.8865 76.5267 56.6663 76.8825 52.7425 75.8763C52.7189 75.8704 52.6955 75.8637 52.6748 75.8572L39.813 71.8636C39.0353 71.6222 38.5991 70.7929 38.8406 70.0155C39.0339 69.3935 39.6006 68.9756 40.2507 68.9756C40.3984 68.9756 40.5464 68.9982 40.6895 69.0425L53.4845 73.0154C53.5049 73.0216 53.5259 73.0275 53.5468 73.0329C56.5642 73.7945 58.9208 73.5826 60.5441 72.4184C62.595 70.9468 62.9562 68.3599 62.9989 67.9799C63.0005 67.9678 63.0019 67.9557 63.0027 67.9433C63.0035 67.9372 63.0038 67.9337 63.004 67.9329C63.0043 67.9288 63.0046 67.9248 63.0048 67.9211C63.0051 67.9184 63.0051 67.916 63.0054 67.9133C63.2495 64.7234 61.1911 61.778 58.107 60.9071L58.0504 60.8899C57.9564 60.8593 48.4911 57.7678 42.4603 56.0469C41.7903 55.856 39.944 55.4115 37.2738 55.4115C33.5394 55.4115 27.9684 56.2964 22.6248 60.5207L0.448577 78.4589C-0.0587114 78.869 -0.148675 79.6078 0.245017 80.1279L12.2524 95.9884C12.4471 96.2451 12.736 96.4138 13.0553 96.4568C13.1088 96.464 13.1622 96.4675 13.2159 96.4675C13.481 96.4675 13.7407 96.3802 13.9531 96.2164L29.4193 84.3076C29.7668 84.0404 30.2328 83.9397 30.6598 84.0404L55.6402 89.9437C57.4926 90.3814 59.4946 90.0989 61.1516 89.1649L96.1059 69.4792C99.7807 67.4089 101.087 62.7356 99.0172 59.0606Z" fill="black"/>
<path d="M85.1249 3.53275H39.4716C37.9887 3.53275 36.7861 4.73505 36.7861 6.21824V18.4383C36.7861 19.9215 37.9887 21.1238 39.4716 21.1238H40.4746V47.0717C40.4746 48.5549 41.6769 49.7572 43.1601 49.7572H81.4353C82.9185 49.7572 84.1208 48.5549 84.1208 47.0717V21.1235H85.1246C86.6076 21.1235 87.8101 19.9212 87.8101 18.438V6.21824C87.8104 4.73505 86.6078 3.53275 85.1249 3.53275ZM67.9472 27.5039H56.6488C55.4642 27.5039 54.5004 26.5401 54.5004 25.3556C54.5004 24.171 55.4642 23.2072 56.6488 23.2072H67.9472C69.1317 23.2072 70.0956 24.171 70.0956 25.3556C70.0956 26.5401 69.1317 27.5039 67.9472 27.5039ZM82.4394 15.7525H81.4356H43.1601H42.1571V8.90373H82.4394V15.7525Z" fill="black"/>
</g>
<defs>
<clipPath id="clip0_164_58">
<rect width="100" height="100" fill="white"/>
</clipPath>
</defs>
</svg>
