<svg width="100" height="100" viewBox="0 0 100 100" fill="none" xmlns="http://www.w3.org/2000/svg">
<g clip-path="url(#clip0_164_83)">
<path d="M79.1667 12.5H20.8333C18.6232 12.5 16.5036 13.378 14.9408 14.9408C13.378 16.5036 12.5 18.6232 12.5 20.8333V79.1667C12.5 81.3768 13.378 83.4964 14.9408 85.0592C16.5036 86.622 18.6232 87.5 20.8333 87.5H79.1667C81.3768 87.5 83.4964 86.622 85.0592 85.0592C86.622 83.4964 87.5 81.3768 87.5 79.1667V20.8333C87.5 18.6232 86.622 16.5036 85.0592 14.9408C83.4964 13.378 81.3768 12.5 79.1667 12.5ZM54.1667 54.1667H45.8333V29.1667H54.1667V54.1667ZM54.1667 70.8333H45.8333V62.5H54.1667V70.8333Z" fill="black"/>
</g>
<defs>
<clipPath id="clip0_164_83">
<rect width="100" height="100" fill="white"/>
</clipPath>
</defs>
</svg>
