<svg width="100" height="100" viewBox="0 0 100 100" fill="none" xmlns="http://www.w3.org/2000/svg">
<g clip-path="url(#clip0_164_25)">
<path d="M93.299 25.0004L81.696 18.3011L74.9985 6.69985H61.602L49.999 0.000577927L38.396 6.69985H24.9995L18.3002 18.3028L6.69927 25.0004V38.3969L0 49.9999L6.69927 61.6028V74.9993L18.3023 81.6986L25.0015 93.3016H38.398L49.9993 99.9991L61.6023 93.2999H74.9988L81.698 81.6969L93.301 74.9976V61.6011L100 49.9981L93.301 38.3951V25.0004H93.299ZM45.4863 70.4641C44.5541 71.3964 43.3258 71.8494 42.1031 71.8323C40.88 71.8497 39.6521 71.3964 38.7198 70.4641L24.0968 55.8411C22.265 54.0093 22.265 51.0376 24.0968 49.2059L27.9679 45.3347C29.7997 43.5029 32.7713 43.5029 34.6031 45.3347L42.1031 52.8347L65.3937 29.5423C67.2255 27.7105 70.1971 27.7105 72.0289 29.5423L75.9 33.4134C77.7318 35.2452 77.7318 38.2169 75.9 40.0486L45.4863 70.4641Z" fill="#010002"/>
</g>
<defs>
<clipPath id="clip0_164_25">
<rect width="100" height="100" fill="white"/>
</clipPath>
</defs>
</svg>
