<svg width="100" height="100" viewBox="0 0 100 100" fill="none" xmlns="http://www.w3.org/2000/svg">
<path d="M50.0001 8.33334C41.1653 8.34217 32.6954 11.858 26.4514 18.1082C20.2074 24.3585 16.7001 32.8319 16.7001 41.6667C16.5945 52.3796 19.7137 62.8765 25.6524 71.7934C31.591 80.7102 40.0744 87.6346 50.0001 91.6667C59.9227 87.632 68.4026 80.7065 74.3381 71.7899C80.2736 62.8732 83.3904 52.3776 83.2834 41.6667C83.2834 32.8348 79.7784 24.3639 73.538 18.1141C67.2976 11.8643 58.832 8.34658 50.0001 8.33334ZM50.0001 54.1667C47.5278 54.1667 45.1111 53.4336 43.0555 52.06C40.9999 50.6865 39.3977 48.7343 38.4516 46.4502C37.5055 44.1661 37.258 41.6528 37.7403 39.228C38.2226 36.8033 39.4131 34.576 41.1613 32.8278C42.9094 31.0797 45.1367 29.8892 47.5615 29.4069C49.9862 28.9245 52.4996 29.1721 54.7836 30.1182C57.0677 31.0643 59.02 32.6664 60.3935 34.722C61.767 36.7777 62.5001 39.1944 62.5001 41.6667C62.5001 44.9819 61.1831 48.1613 58.8389 50.5055C56.4947 52.8497 53.3153 54.1667 50.0001 54.1667Z" fill="black"/>
</svg>
