<svg width="100" height="100" viewBox="0 0 100 100" fill="none" xmlns="http://www.w3.org/2000/svg">
<g clip-path="url(#clip0_164_47)">
<path d="M83.3227 33.2684C80.2877 33.2684 74.7792 33.2664 71.5868 33.2651V31.0405C71.5868 26.9535 68.2618 23.6284 64.1747 23.6284H43.1272C39.3673 16.2042 31.6614 11.1026 22.7859 11.1026C10.2218 11.1024 0 21.3242 0 33.8885C0 41.6384 3.89013 48.4958 9.81909 52.614V72.5618C9.81909 76.6488 13.1442 79.9739 17.2312 79.9739H17.4496C18.4713 85.0569 22.9699 88.8976 28.3494 88.8976C33.7289 88.8976 38.2276 85.0569 39.2492 79.9739H64.1747C66.0717 79.9739 67.8039 79.2569 69.1161 78.0803C70.1254 78.9851 71.3832 79.6161 72.7733 79.8603C73.7504 84.9993 78.2741 88.8976 83.6933 88.8976C89.1753 88.8976 93.7402 84.9084 94.6455 79.6811C97.7341 78.787 100 75.935 100 72.5618V54.7593C100 42.1308 89.1808 33.2684 83.3227 33.2684ZM4.94142 33.8885C4.94142 24.0489 12.9465 16.044 22.7861 16.044C32.6255 16.044 40.6306 24.0489 40.6306 33.8885C40.6306 43.7281 32.6257 51.733 22.7861 51.733C12.9465 51.733 4.94142 43.7279 4.94142 33.8885ZM28.3494 83.9562C24.9435 83.9562 22.1726 81.1853 22.1726 77.7794C22.1726 74.3735 24.9435 71.6026 28.3494 71.6026C31.7553 71.6026 34.5262 74.3735 34.5262 77.7794C34.5262 81.1853 31.7553 83.9562 28.3494 83.9562ZM83.6933 83.9562C80.2874 83.9562 77.5165 81.1853 77.5165 77.7794C77.5165 74.3735 80.2874 71.6026 83.6933 71.6026C87.0992 71.6026 89.8701 74.3735 89.8701 77.7794C89.8701 81.1853 87.0992 83.9562 83.6933 83.9562ZM95.0586 72.5618C95.0586 73.2728 94.7549 73.9128 94.2724 74.3639C92.8275 69.8996 88.6323 66.6612 83.6933 66.6612C78.6002 66.6612 74.2989 70.1049 72.988 74.7854C72.1605 74.3857 71.5868 73.5404 71.5868 72.5618V38.2066C73.4908 38.2073 76.2172 38.2083 78.7519 38.209V50.9297C78.7519 55.0168 82.077 58.3419 86.164 58.3419H95.0586V72.5618Z" fill="black"/>
<path d="M22.7861 36.3592H29.5317C30.8962 36.3592 32.0024 35.2531 32.0024 33.8885C32.0024 32.5239 30.8962 31.4178 29.5317 31.4178H25.2568V22.607C25.2568 21.2424 24.1507 20.1363 22.7861 20.1363C21.4216 20.1363 20.3154 21.2424 20.3154 22.607V33.8883C20.3154 35.2531 21.4216 36.3592 22.7861 36.3592Z" fill="black"/>
</g>
<defs>
<clipPath id="clip0_164_47">
<rect width="100" height="100" fill="white"/>
</clipPath>
</defs>
</svg>
