<svg width="100" height="75" viewBox="0 0 100 75" fill="none" xmlns="http://www.w3.org/2000/svg">
<g clip-path="url(#clip0_165_162)">
<path d="M66.6667 25L79.1667 41.6667H87.5001C92.1251 41.6667 95.8334 45.375 95.8334 50V62.5H87.5001C87.5001 69.4167 81.9167 75 75.0001 75C68.0834 75 62.5001 69.4167 62.5001 62.5H37.5001C37.5001 69.4167 31.9167 75 25.0001 75C18.0834 75 12.5001 69.4167 12.5001 62.5H4.16675V50C4.16675 45.375 7.87508 41.6667 12.5001 41.6667L25.0001 25H66.6667ZM43.7501 31.25H28.1251L20.2501 41.6667H43.7501V31.25ZM50.0001 31.25V41.6667H71.4167L63.5417 31.25H50.0001ZM25.0001 56.25C21.5417 56.25 18.7501 59.0417 18.7501 62.5C18.7501 65.9583 21.5417 68.75 25.0001 68.75C28.4584 68.75 31.2501 65.9583 31.2501 62.5C31.2501 59.0417 28.4584 56.25 25.0001 56.25ZM75.0001 56.25C71.5417 56.25 68.7501 59.0417 68.7501 62.5C68.7501 65.9583 71.5417 68.75 75.0001 68.75C78.4584 68.75 81.2501 65.9583 81.2501 62.5C81.2501 59.0417 78.4584 56.25 75.0001 56.25Z" fill="black"/>
<g clip-path="url(#clip1_165_162)">
<path d="M88.2501 26.625C87.8751 26.9075 87.4764 27.205 87.1376 27.5H90.0001C90.3316 27.5 90.6496 27.6317 90.884 27.8661C91.1184 28.1005 91.2501 28.4185 91.2501 28.75C91.2501 29.0815 91.1184 29.3995 90.884 29.6339C90.6496 29.8683 90.3316 30 90.0001 30H85.0001C84.6686 30 84.3507 29.8683 84.1162 29.6339C83.8818 29.3995 83.7501 29.0815 83.7501 28.75C83.7501 26.875 85.3439 25.68 86.7501 24.625C87.6876 23.9225 88.7501 23.125 88.7501 22.5C88.7501 22.1685 88.6184 21.8505 88.384 21.6161C88.1496 21.3817 87.8316 21.25 87.5001 21.25C87.1686 21.25 86.8507 21.3817 86.6162 21.6161C86.3818 21.8505 86.2501 22.1685 86.2501 22.5C86.2501 22.8315 86.1184 23.1495 85.884 23.3839C85.6496 23.6183 85.3316 23.75 85.0001 23.75C84.6686 23.75 84.3507 23.6183 84.1162 23.3839C83.8818 23.1495 83.7501 22.8315 83.7501 22.5C83.7501 21.5054 84.1452 20.5516 84.8485 19.8483C85.5517 19.1451 86.5056 18.75 87.5001 18.75C88.4947 18.75 89.4485 19.1451 90.1518 19.8483C90.855 20.5516 91.2501 21.5054 91.2501 22.5C91.2501 24.375 89.6564 25.57 88.2501 26.625ZM98.7501 18.75C98.4186 18.75 98.1007 18.8817 97.8662 19.1161C97.6318 19.3505 97.5001 19.6685 97.5001 20V23.75H96.2501C95.9186 23.75 95.6007 23.6183 95.3662 23.3839C95.1318 23.1495 95.0001 22.8315 95.0001 22.5V20C95.0001 19.6685 94.8684 19.3505 94.634 19.1161C94.3996 18.8817 94.0816 18.75 93.7501 18.75C93.4186 18.75 93.1007 18.8817 92.8662 19.1161C92.6318 19.3505 92.5001 19.6685 92.5001 20V22.5C92.5001 23.4946 92.8952 24.4484 93.5985 25.1517C94.3017 25.8549 95.2556 26.25 96.2501 26.25H97.5001V28.75C97.5001 29.0815 97.6318 29.3995 97.8662 29.6339C98.1007 29.8683 98.4186 30 98.7501 30C99.0816 30 99.3996 29.8683 99.634 29.6339C99.8684 29.3995 100 29.0815 100 28.75V20C100 19.6685 99.8684 19.3505 99.634 19.1161C99.3996 18.8817 99.0816 18.75 98.7501 18.75ZM86.2501 15V8.75C86.2501 8.41848 86.1184 8.10054 85.884 7.86612C85.6496 7.6317 85.3316 7.5 85.0001 7.5C84.6686 7.5 84.3507 7.6317 84.1162 7.86612C83.8818 8.10054 83.7501 8.41848 83.7501 8.75V13.75H80.0001C79.6686 13.75 79.3507 13.8817 79.1162 14.1161C78.8818 14.3505 78.7501 14.6685 78.7501 15C78.7501 15.3315 78.8818 15.6495 79.1162 15.8839C79.3507 16.1183 79.6686 16.25 80.0001 16.25H85.0001C85.3316 16.25 85.6496 16.1183 85.884 15.8839C86.1184 15.6495 86.2501 15.3315 86.2501 15ZM98.7501 2.5C98.4186 2.5 98.1007 2.6317 97.8662 2.86612C97.6318 3.10054 97.5001 3.41848 97.5001 3.75V6.7175C96.1977 4.75197 94.4503 3.12115 92.3996 1.95738C90.3489 0.793605 88.0528 0.129655 85.6975 0.0194002C83.3422 -0.0908549 80.9941 0.355691 78.8437 1.32281C76.6932 2.28992 74.8011 3.75036 73.3208 5.58563C71.8404 7.4209 70.8136 9.5793 70.3236 11.8857C69.8336 14.1921 69.8942 16.5815 70.5005 18.8601C71.1068 21.1387 72.2417 23.2423 73.8132 25.0002C75.3847 26.758 77.3484 28.1206 79.5451 28.9775C79.6903 29.0335 79.8445 29.0623 80.0001 29.0625C80.2918 29.063 80.5745 28.9614 80.7992 28.7754C81.0239 28.5893 81.1764 28.3306 81.2304 28.0439C81.2844 27.7573 81.2365 27.4608 81.0949 27.2057C80.9533 26.9507 80.727 26.7532 80.4551 26.6475C78.5901 25.9264 76.9254 24.7683 75.6006 23.2706C74.2758 21.7729 73.3296 19.9793 72.8415 18.0402C72.3534 16.1012 72.3375 14.0734 72.7953 12.1269C73.2531 10.1805 74.1712 8.37229 75.4724 6.85409C76.7737 5.3359 78.4201 4.15202 80.2736 3.40184C82.1271 2.65166 84.1335 2.35708 86.1244 2.54281C88.1153 2.72854 90.0326 3.38917 91.7153 4.46924C93.3981 5.54931 94.7971 7.01731 95.7951 8.75H92.5001C92.1686 8.75 91.8507 8.8817 91.6162 9.11612C91.3818 9.35054 91.2501 9.66848 91.2501 10C91.2501 10.3315 91.3818 10.6495 91.6162 10.8839C91.8507 11.1183 92.1686 11.25 92.5001 11.25H96.2501C97.2447 11.25 98.1985 10.8549 98.9018 10.1517C99.605 9.44839 100 8.49456 100 7.5V3.75C100 3.41848 99.8684 3.10054 99.634 2.86612C99.3996 2.6317 99.0816 2.5 98.7501 2.5Z" fill="black"/>
</g>
</g>
<defs>
<clipPath id="clip0_165_162">
<rect width="100" height="75" fill="white"/>
</clipPath>
<clipPath id="clip1_165_162">
<rect width="30" height="30" fill="white" transform="translate(70)"/>
</clipPath>
</defs>
</svg>
