<svg width="100" height="100" viewBox="0 0 100 100" fill="none" xmlns="http://www.w3.org/2000/svg">
<g clip-path="url(#clip0_164_29)">
<path d="M53.0476 78.8851C53.0476 78.8851 53.1658 78.7848 53.5993 78.7454C53.6423 78.7383 53.6745 78.7383 53.7032 78.7383C54.5594 78.7383 55.7666 79.5407 56.3506 80.508C56.4294 80.6549 56.5763 80.9307 56.6228 81.2102L56.4509 81.1313L54.8818 82.3673C54.7958 82.3816 54.6955 82.3959 54.6095 82.4067L54.6847 82.31L54.1617 81.5899C53.37 80.5187 52.8828 79.1861 53.0476 78.8851Z" fill="#010002"/>
<path d="M95.2952 44.655L91.1181 48.8214L82.2086 39.8868L86.3893 35.7204L95.2952 44.655Z" fill="#010002"/>
<path fill-rule="evenodd" clip-rule="evenodd" d="M74.955 64.9817L75.0831 71.4552V95.2784H9.71806V4.71806H75.0831V43.591V47.0201L60.9683 61.1199L69.885 70.0473L74.955 64.9817ZM50.3751 88.3034C50.0527 88.3034 49.7482 88.1923 49.4687 87.92C49.003 87.4687 48.5624 87.0244 50.0992 84.5955C46.8392 84.1549 45.0373 83.3524 44.2993 82.0162C43.5219 80.6298 44.1703 79.2147 44.6468 78.1794C44.6654 78.1373 44.6855 78.0924 44.7064 78.0457C44.8382 77.7513 45.0013 77.3869 45.0229 77.2014C44.9962 77.2134 44.9304 77.1985 44.81 77.1711C44.608 77.1252 44.2523 77.0443 43.6688 76.9972C43.0096 76.9471 42.1534 76.9829 41.8919 77.445C41.0966 78.7956 43.1207 83.0264 44.7435 85.4697L42.7767 86.7808C41.9743 85.5628 38.03 79.3544 39.8535 76.2413C40.3443 75.403 41.4405 74.4573 43.8515 74.64C45.0373 74.7259 46.4738 74.9731 47.1115 76.0586C47.7348 77.119 47.2118 78.2546 46.7819 79.1717L46.7349 79.2787C46.4667 79.8883 46.1763 80.5482 46.3556 80.8662C46.4846 81.0883 47.1652 81.8478 50.6975 82.292C51.0307 82.3315 51.3388 82.3673 51.6433 82.3959C51.6827 82.335 51.7185 82.2885 51.7687 82.2276C51.1274 81.1779 50.2533 79.3222 50.8981 77.9036C51.1883 77.2802 51.8546 76.5136 53.4058 76.3846C55.4371 76.2055 57.479 77.7567 58.389 79.29C59.0231 80.3683 59.1735 81.4717 58.801 82.4246C58.8133 82.4394 58.8325 82.4525 58.8526 82.4663C58.8616 82.4725 58.8709 82.4788 58.8798 82.4855L59.7682 83.0766L58.457 85.0434L57.5758 84.4558C57.4653 84.383 57.3579 84.3147 57.2546 84.2491C57.2235 84.2293 57.1928 84.2098 57.1625 84.1905C57.14 84.1762 57.1178 84.1619 57.0957 84.1477C56.7482 84.3161 56.3577 84.4558 55.9135 84.5633L52.7574 87.0495C52.0696 87.6119 51.1811 88.3034 50.3751 88.3034ZM51.9442 90.5818L53.8751 91.9395C53.9002 91.9037 56.8091 87.8878 61.6597 88.2926L61.8711 85.9425C55.7093 85.398 52.0982 90.3668 51.9442 90.5818ZM63.4832 86.0966L63.1894 88.4861L65.5252 88.7762L65.8189 86.3832L63.4832 86.0966ZM58.1525 16.5329V11.8077H26.6558V16.5329H58.1525ZM17.0298 26.6784H66.2381V24.0202H17.0298V26.6784ZM17.0298 34.6457H66.2381V31.9768H17.0298V34.6457ZM17.0298 42.8208H66.2381V40.1591H17.0298V42.8208ZM17.0298 51.1285H66.2381V48.4667H17.0298V51.1285ZM55.935 75.0878L67.3701 72.5693L68.3446 71.6021L59.4243 62.6818L58.4535 63.6526L55.935 75.0878Z" fill="#010002"/>
<path d="M90.1652 49.7851L81.2521 40.8576L79.794 42.3141L75.0831 47.0201L74.955 64.9817L80.0251 59.9162L90.1652 49.7851Z" fill="#010002"/>
</g>
<defs>
<clipPath id="clip0_164_29">
<rect width="100" height="100" fill="white"/>
</clipPath>
</defs>
</svg>
