<?xml version="1.0" standalone="no"?>
<!DOCTYPE svg PUBLIC "-//W3C//DTD SVG 20010904//EN"
 "http://www.w3.org/TR/2001/REC-SVG-20010904/DTD/svg10.dtd">
<svg version="1.0" xmlns="http://www.w3.org/2000/svg"
 width="512.000000pt" height="512.000000pt" viewBox="0 0 512.000000 512.000000"
 preserveAspectRatio="xMidYMid meet">
<metadata>
Created by potrace 1.16, written by Peter Selinger 2001-2019
</metadata>
<g transform="translate(0.000000,512.000000) scale(0.100000,-0.100000)"
fill="#000000" stroke="none">
<path d="M2176 4171 c5 -5 52 -27 104 -49 52 -22 129 -57 170 -77 l75 -36 -85
5 c-47 3 -153 16 -237 30 -83 15 -158 23 -167 20 -35 -13 -44 -57 -55 -264 -7
-112 -13 -205 -14 -206 -1 -1 -17 -9 -34 -18 -18 -9 -144 -83 -280 -165 -137
-81 -318 -187 -403 -235 -301 -170 -431 -249 -445 -270 -13 -17 -15 -93 -15
-476 l1 -455 34 -38 c20 -20 40 -37 46 -37 7 0 8 -7 4 -17 -12 -28 -34 -145
-35 -181 0 -18 -7 -44 -16 -57 -12 -19 -14 -39 -8 -104 l7 -81 57 0 c54 0 58
-2 64 -26 4 -15 5 -28 3 -31 -3 -2 -48 -7 -101 -12 -158 -13 -148 -17 138 -52
197 -23 311 -44 726 -133 319 -68 649 -129 785 -145 44 -5 161 -15 260 -22
159 -11 204 -11 370 5 312 28 1023 113 1060 126 31 11 -60 28 -224 41 -119 10
-161 9 -273 -5 -73 -9 -214 -23 -313 -31 -99 -8 -202 -17 -230 -20 -39 -4 -45
-3 -27 5 13 6 178 28 365 51 515 61 668 86 696 114 20 20 29 128 30 367 l1
187 -35 -20 c-19 -12 -40 -19 -47 -16 -7 2 6 13 29 25 23 12 44 26 47 31 10
15 -13 64 -47 99 -33 34 -63 46 -33 13 17 -19 17 -19 -3 -14 -32 8 -25 29 22
60 65 44 68 56 57 230 -10 158 -17 190 -44 212 -9 7 -16 25 -16 38 0 43 -30
235 -45 287 -12 42 -12 51 0 60 12 9 12 34 5 144 -5 73 -12 143 -16 155 -8 27
-53 77 -70 77 -10 0 -34 49 -34 70 0 14 50 20 73 9 16 -8 11 0 -15 27 -22 24
-58 88 -93 164 -78 173 -97 202 -157 246 -79 58 -80 59 -92 42 -10 -13 -38 -7
-206 44 -107 32 -271 79 -365 104 -93 24 -190 54 -215 66 -75 34 -152 35 -245
1 l-80 -29 -95 44 c-93 44 -306 132 -318 132 -3 0 -2 -4 4 -9z m59 -151 c94
-16 193 -30 220 -31 49 0 112 -17 73 -18 -10 -1 -59 -20 -109 -42 -91 -41 -93
-41 -173 -34 -45 3 -92 9 -106 11 -20 5 -22 3 -10 -5 8 -6 10 -11 4 -11 -6 0
-16 -11 -22 -25 -14 -31 -39 -221 -47 -365 -3 -58 -10 -121 -15 -140 -5 -19
-11 -328 -13 -687 -1 -359 -6 -656 -11 -660 -4 -4 -141 -11 -304 -15 -163 -4
-412 -13 -552 -19 -360 -18 -344 -18 -348 7 -3 20 3 21 180 33 101 7 341 23
533 37 193 13 374 24 403 24 l52 0 0 788 c-1 1007 8 1182 63 1182 6 0 89 -14
182 -30z m649 0 c41 -19 84 -75 151 -193 14 -27 33 -51 41 -54 12 -5 64 -91
64 -107 0 -3 -12 -1 -27 4 -53 18 -252 51 -284 48 -31 -3 -32 -1 -48 57 -35
124 -84 183 -141 170 -34 -8 -233 -110 -298 -153 -58 -38 -67 -54 -76 -128 -5
-47 -5 -46 10 14 18 71 29 82 164 155 201 108 218 113 263 77 33 -26 52 -78
80 -218 l23 -112 -20 7 c-12 5 -46 8 -76 8 -58 -1 -175 -42 -398 -142 -57 -25
-106 -42 -110 -39 -3 4 1 60 11 124 29 202 56 279 103 292 10 3 38 17 61 32
50 33 270 144 322 163 55 20 138 18 185 -5z m156 -50 c30 -8 40 -19 63 -66 16
-31 30 -54 33 -51 3 3 -6 27 -20 54 l-25 50 232 -68 c128 -38 268 -79 312 -92
l80 -24 22 -74 c28 -93 29 -113 6 -106 -10 3 -130 35 -268 72 -166 45 -258 74
-275 88 l-25 21 25 -26 c21 -22 67 -38 275 -94 266 -71 305 -80 305 -70 0 20
-33 163 -41 178 -12 22 -6 22 32 2 37 -18 90 -127 93 -185 1 -33 6 -40 42 -57
28 -14 45 -30 52 -51 10 -30 10 -30 -16 -20 -29 12 -537 137 -667 164 -91 20
-108 31 -141 97 -13 26 -33 53 -44 61 -12 8 -36 45 -54 83 -18 38 -46 84 -62
103 l-29 34 30 -7 c17 -4 46 -11 65 -16z m-789 -100 c10 0 1 -15 -26 -44 -34
-35 -46 -58 -63 -122 -24 -93 -42 -205 -42 -268 0 -58 -8 -76 -32 -76 -20 0
-21 4 -14 113 9 141 33 338 46 371 9 25 49 38 95 30 11 -2 27 -4 36 -4z m1639
-253 c0 -4 8 -25 19 -47 18 -38 18 -38 -2 -31 -14 5 -25 26 -37 67 -9 32 -22
69 -28 81 -7 12 -12 25 -12 30 0 10 60 -89 60 -100z m-1170 -47 c0 -5 -7 -10
-15 -10 -8 0 -31 -11 -51 -25 -20 -14 -54 -30 -75 -35 -46 -13 -241 -105 -283
-133 -44 -31 -55 -72 -66 -247 -15 -228 -6 -250 106 -250 l57 0 -6 -82 c-4
-46 -7 -107 -7 -135 0 -44 -3 -53 -17 -53 -17 -1 -17 -1 0 -11 12 -7 17 -23
17 -59 0 -56 8 -52 -119 -70 -40 -6 -76 -8 -80 -5 -8 9 -6 690 3 816 l8 106
111 51 c90 41 265 112 357 145 26 9 60 7 60 -3z m-762 -96 c-7 -7 -88 -51
-180 -99 l-167 -86 -14 27 -15 28 192 112 191 111 3 -40 c2 -24 -2 -45 -10
-53z m1248 71 c4 -8 13 -15 22 -15 8 0 13 -3 9 -6 -3 -3 -22 -1 -43 6 -26 9
-33 15 -23 21 20 13 29 11 35 -6z m-449 -10 c0 -8 -9 -15 -19 -15 -23 0 -24
17 0 23 9 3 17 5 18 6 0 0 1 -6 1 -14z m252 -20 c41 -8 75 -16 77 -18 2 -2 -9
-30 -25 -63 -41 -82 -81 -226 -81 -292 0 -30 -2 -53 -4 -51 -2 2 -18 92 -36
199 -17 107 -35 207 -40 223 -8 25 -7 27 13 22 12 -3 55 -11 96 -20z m-329
-15 c0 -5 -3 -10 -7 -10 -5 0 -19 -3 -33 -6 l-25 -5 25 15 c30 18 40 20 40 6z
m141 -201 c18 -158 22 -280 26 -656 3 -255 1 -463 -4 -463 -4 0 -71 11 -148
24 -77 13 -177 27 -222 31 -91 8 -113 25 -33 25 60 0 69 13 48 68 -12 34 -17
37 -56 40 l-42 3 0 100 0 100 99 -75 c176 -134 212 -156 248 -156 23 0 42 8
60 26 l25 25 -5 382 c-3 245 -10 440 -21 545 -14 144 -14 194 0 179 3 -2 14
-91 25 -198z m-251 174 c-51 -18 -100 -47 -100 -59 0 -8 -13 -19 -28 -25 l-29
-10 -7 -217 c-9 -286 -5 -272 -71 -272 -77 0 -85 11 -85 123 1 156 16 287 37
314 20 27 254 153 281 152 14 0 14 -2 2 -6z m204 -243 c9 -129 16 -261 16
-292 0 -55 -1 -58 -25 -58 -30 0 -31 6 -7 45 l19 30 -51 -1 c-35 -1 -39 0 -14
3 29 3 39 9 44 27 3 12 -1 126 -10 251 -8 126 -12 233 -9 238 14 23 22 -26 37
-243z m-93 215 c-18 -8 -38 -15 -45 -14 -15 1 46 28 64 28 8 0 0 -6 -19 -14z
m-718 -317 c9 -433 9 -926 0 -931 -12 -7 -1132 -121 -1137 -116 -2 2 -1 177 3
389 l6 385 65 36 c36 20 216 116 400 213 184 97 405 214 490 261 85 47 158 85
161 85 3 0 9 -145 12 -322z m631 296 c3 -9 6 -60 6 -114 0 -108 4 -101 -66
-115 -39 -8 -44 5 -44 127 0 79 2 88 22 102 29 21 74 21 82 0z m-124 -216 c0
-90 5 -181 11 -203 6 -22 10 -47 9 -55 0 -8 0 -101 0 -207 l0 -192 -45 27 -45
27 1 110 c0 60 4 146 9 190 5 44 12 163 16 265 7 173 11 199 37 200 4 0 7 -73
7 -162z m-359 -505 c2 -357 2 -665 0 -686 -3 -35 -6 -38 -30 -35 l-26 3 0 218
c0 119 1 424 3 676 2 490 0 462 43 470 4 0 9 -290 10 -646z m1773 600 c4 -14
76 -361 76 -368 0 -8 -69 11 -82 22 -26 23 -102 42 -198 49 -102 8 -95 -2
-106 135 -8 103 -16 96 136 132 58 14 116 30 130 36 35 14 38 13 44 -6z m196
-193 c19 -168 7 -277 -19 -162 -16 74 -31 186 -31 239 l0 47 20 -20 c15 -15
23 -42 30 -104z m-1452 49 c-3 -20 -5 -19 -9 9 -3 20 -2 29 4 23 5 -5 7 -19 5
-32z m-20 -79 l3 -103 -46 7 c-26 3 -51 8 -56 12 -5 3 -9 42 -9 88 l0 82 43
11 c23 5 47 9 52 8 6 -1 11 -46 13 -105z m29 -22 c-2 -13 -4 -5 -4 17 -1 22 1
32 4 23 2 -10 2 -28 0 -40z m511 -5 c-10 -2 -28 -2 -40 0 -13 2 -5 4 17 4 22
1 32 -1 23 -4z m90 -10 c-10 -2 -28 -2 -40 0 -13 2 -5 4 17 4 22 1 32 -1 23
-4z m70 -10 c-10 -2 -26 -2 -35 0 -10 3 -2 5 17 5 19 0 27 -2 18 -5z m-284
-26 c8 -13 7 -20 -4 -27 -17 -11 -15 -12 -24 23 -8 32 9 34 28 4z m364 16
c-10 -2 -26 -2 -35 0 -10 3 -2 5 17 5 19 0 27 -2 18 -5z m-125 -20 c-7 -2 -21
-2 -30 0 -10 3 -4 5 12 5 17 0 24 -2 18 -5z m304 1 c-3 -3 -12 -4 -19 -1 -8 3
-5 6 6 6 11 1 17 -2 13 -5z m-913 -36 c7 -5 4 -8 -6 -8 -12 0 -18 7 -17 23 0
15 2 17 6 7 3 -8 11 -18 17 -22z m723 26 c-3 -3 -12 -4 -19 -1 -8 3 -5 6 6 6
11 1 17 -2 13 -5z m83 -4 c10 -5 37 -33 60 -62 l43 -53 -49 50 c-27 28 -58 55
-69 62 -24 14 -11 17 15 3z m197 4 c-3 -3 -12 -4 -19 -1 -8 3 -5 6 6 6 11 1
17 -2 13 -5z m70 -10 c-3 -3 -12 -4 -19 -1 -8 3 -5 6 6 6 11 1 17 -2 13 -5z
m-753 -64 c31 -12 63 -31 70 -43 14 -22 26 -116 46 -377 6 -74 22 -190 36
-258 14 -68 23 -126 20 -129 -6 -6 -205 34 -246 49 -13 5 -28 15 -32 21 -4 7
-8 189 -8 405 l0 393 28 -20 c16 -11 54 -30 86 -41z m829 53 c-7 -2 -19 -2
-25 0 -7 3 -2 5 12 5 14 0 19 -2 13 -5z m162 -63 c3 -6 -1 -7 -9 -4 -18 7 -21
14 -7 14 6 0 13 -4 16 -10z m-1245 -10 c8 -5 11 -12 7 -16 -4 -4 -15 0 -24 9
-18 18 -8 23 17 7z m-1909 -715 l-8 -200 -1 180 c-1 99 1 306 6 460 l7 280 2
-260 c2 -143 -1 -350 -6 -460z m2315 709 c25 -7 52 -54 31 -54 -33 0 -88 23
-97 40 -9 18 -7 20 17 20 15 0 38 -3 49 -6z m264 -14 c150 -13 386 -43 568
-72 113 -19 132 -24 132 -40 0 -13 -8 -18 -29 -18 -17 0 -32 4 -35 9 -4 5 -37
14 -75 21 -53 9 -75 9 -91 0 -12 -6 -24 -9 -27 -7 -2 3 5 11 17 17 36 20 14
23 -26 4 -36 -17 -43 -17 -221 5 -101 12 -203 29 -226 37 -23 8 -75 17 -116
19 -69 3 -90 12 -91 38 0 5 21 6 48 3 26 -3 103 -11 172 -16z m672 -55 c6 -11
7 -15 2 -10 -5 6 -25 28 -44 50 l-35 40 33 -30 c19 -17 38 -39 44 -50z m-802
15 l25 -8 -25 -1 c-14 0 -32 4 -40 9 -13 9 -13 10 0 9 8 -1 26 -5 40 -9z
m-113 -10 c35 -6 149 -19 255 -31 106 -11 279 -29 383 -40 105 -11 218 -20
253 -20 l63 -1 -6 -30 c-5 -22 -4 -28 4 -23 9 5 10 -8 7 -47 -4 -33 -3 -44 2
-28 5 14 8 -93 7 -237 0 -198 -4 -266 -13 -275 -10 -10 -90 -13 -350 -12 -359
1 -549 13 -563 36 -30 47 -64 223 -88 463 -12 110 -23 212 -26 228 -2 15 -1
27 3 27 4 0 35 -5 69 -10z m980 -307 c-3 -10 -5 -4 -5 12 0 17 2 24 5 18 2 -7
2 -21 0 -30z m31 -320 c-2 -40 1 -69 6 -66 10 7 2 297 -10 328 -5 15 -4 17 5
9 19 -17 32 -139 29 -260 l-3 -108 -33 -13 c-33 -13 -33 -13 -25 9 4 13 8 106
7 208 l0 185 13 -110 c7 -60 12 -142 11 -182z m-1778 152 l0 -105 -69 0 c-38
0 -83 3 -100 6 l-31 7 0 82 0 82 93 15 c50 8 95 16 100 17 4 0 7 -46 7 -104z
m80 -5 c0 -5 -16 -10 -35 -10 -19 0 -35 5 -35 10 0 6 16 10 35 10 19 0 35 -4
35 -10z m-142 -120 c42 0 52 -3 53 -17 1 -16 2 -16 6 -1 3 12 13 16 36 13 18
-2 75 -9 127 -15 122 -15 324 -57 328 -69 2 -5 12 -7 22 -4 35 9 22 -21 -35
-79 l-55 -56 0 -186 c0 -144 -3 -186 -13 -186 -7 0 -45 16 -84 34 -54 26 -73
41 -77 58 -47 252 -104 353 -216 387 -33 10 -40 16 -41 39 -2 27 -2 27 -6 2
-4 -24 -7 -25 -59 -22 -68 5 -93 -1 -122 -29 -13 -11 -25 -19 -28 -17 -2 2 -4
25 -5 50 -2 33 4 54 21 78 21 29 27 32 59 26 20 -3 60 -6 89 -6z m762 -130
c34 -8 33 -8 -16 -9 -70 -1 -144 10 -144 22 0 10 96 3 160 -13z m-665 -19 c67
-29 98 -61 129 -132 30 -66 71 -217 62 -227 -14 -14 -63 40 -94 104 -19 38
-41 77 -50 88 -25 27 -82 54 -122 56 -75 6 -90 1 -135 -45 -41 -40 -47 -44
-70 -33 -20 9 -23 16 -18 37 12 53 55 131 86 157 29 24 37 26 97 22 36 -3 88
-15 115 -27z m670 -20 l80 -1 23 -41 c13 -22 22 -42 20 -44 -2 -1 -52 3 -113
11 -60 7 -119 13 -130 13 -42 0 22 -17 106 -29 151 -20 148 -19 164 -50 20
-38 19 -40 -12 -41 l-28 -1 30 -7 c30 -6 31 -9 87 -204 31 -109 62 -205 70
-214 11 -14 35 -15 198 -10 202 7 414 30 434 46 13 11 41 119 33 127 -2 2 -9
-21 -16 -52 -9 -40 -19 -58 -34 -64 -28 -12 -558 -51 -587 -43 -12 3 -26 17
-32 32 -20 52 -108 364 -104 369 3 2 32 -15 65 -39 l60 -42 151 -16 c138 -14
163 -13 288 2 l137 16 38 42 c22 23 42 38 47 33 5 -5 10 -29 13 -54 3 -42 4
-41 6 15 2 33 8 83 15 110 10 46 13 50 41 50 21 0 33 -7 42 -24 15 -32 2 -57
-35 -66 -28 -6 -30 -9 -41 -93 -7 -48 -18 -115 -25 -148 -12 -57 -12 -61 4
-57 10 3 34 18 54 35 l36 29 0 90 c0 53 4 89 10 89 6 0 10 -47 10 -122 0 -112
-2 -124 -22 -147 -13 -14 -15 -19 -5 -12 9 8 20 11 23 8 15 -15 -9 -37 -58
-55 -52 -20 -53 -21 -51 -58 2 -20 5 -39 7 -42 3 -2 26 1 53 6 50 11 68 7 43
-8 -9 -6 -10 -10 -3 -10 7 0 9 -9 4 -27 -7 -26 -13 -29 -81 -40 -87 -15 -343
-43 -710 -79 -230 -22 -272 -29 -320 -51 -73 -34 -158 -39 -300 -19 -152 22
-150 22 -150 57 0 39 15 44 103 31 61 -9 74 -9 87 4 13 13 15 68 15 372 0 328
4 390 23 378 4 -2 18 10 31 28 24 31 26 32 75 25 28 -4 87 -8 131 -8z m251
-12 c43 -47 64 -51 329 -57 139 -3 264 -2 279 2 14 3 44 22 66 42 42 38 86 44
84 12 -1 -10 -2 -25 -3 -33 -2 -25 -44 -35 -204 -46 -160 -12 -569 2 -632 22
-26 8 -65 52 -65 73 0 3 29 6 63 6 52 0 67 -4 83 -21z m-27 -89 c19 -5 51 -21
71 -35 31 -21 60 -29 166 -42 109 -13 149 -14 263 -4 l135 12 43 39 c30 28 51
40 73 40 16 0 30 -5 30 -10 0 -29 -32 -80 -57 -93 -15 -8 -97 -22 -181 -31
-141 -15 -166 -15 -319 -1 -91 9 -177 22 -192 30 -14 7 -43 34 -64 59 -41 50
-36 56 32 36z m-1481 -17 c-21 -2 -57 -2 -80 0 -24 2 -7 4 37 4 44 0 63 -2 43
-4z m-400 -36 c3 -17 -1 -18 -30 -12 -44 10 -53 16 -37 26 23 15 63 6 67 -14z
m-258 -22 c12 -19 19 -39 15 -45 -4 -7 132 -10 415 -10 401 0 460 -4 460 -29
0 -11 -892 -1 -907 11 -8 7 -10 -2 -6 -34 7 -53 13 -62 13 -19 l0 33 358 -7
c196 -4 359 -10 362 -12 7 -7 3 -294 -4 -301 -4 -3 -160 13 -348 36 -188 23
-343 40 -345 38 -5 -4 216 -39 496 -77 205 -27 226 -29 240 -14 13 13 16 43
16 170 l0 155 56 0 55 0 -8 -67 c-5 -38 -9 -134 -11 -215 -2 -133 -4 -148 -20
-148 -39 0 -853 142 -861 150 -5 6 -15 59 -22 119 -14 125 -38 211 -67 242
-17 19 -28 21 -79 16 -54 -5 -89 -19 -86 -35 2 -11 -24 -103 -28 -99 -2 2 1
30 6 62 15 95 44 110 217 114 60 1 62 0 83 -34z m340 -15 c0 -5 -16 -10 -35
-10 -19 0 -35 5 -35 10 0 6 16 10 35 10 19 0 35 -4 35 -10z m623 -2 c16 -12
16 -16 -2 -68 -35 -99 -51 -205 -51 -330 0 -121 -8 -146 -32 -94 -18 39 5 349
32 437 11 37 24 67 28 67 5 0 16 -6 25 -12z m1994 -70 c-3 -8 -6 -5 -6 6 -1
11 2 17 5 13 3 -3 4 -12 1 -19z m-3139 -105 c-20 -73 5 -265 33 -248 4 3 1 18
-6 33 -19 40 -29 122 -15 122 7 0 10 -7 7 -15 -4 -8 1 -38 9 -66 12 -38 18
-48 25 -38 7 12 9 11 9 -2 0 -9 -9 -27 -20 -40 l-20 -24 -19 23 c-41 48 -49
177 -15 260 18 43 25 41 12 -5z m-131 5 c-3 -8 -6 -5 -6 6 -1 11 2 17 5 13 3
-3 4 -12 1 -19z m1546 -8 c39 -31 77 -117 83 -191 13 -130 -49 -249 -130 -249
-47 0 -101 54 -121 123 -24 79 -16 269 9 228 6 -9 13 -8 27 8 20 21 27 67 9
56 -5 -3 -10 -15 -10 -26 0 -10 -7 -19 -15 -19 -23 0 -18 16 16 55 25 28 38
35 69 35 22 0 48 -8 63 -20z m1722 -30 c-10 -11 -21 -17 -24 -14 -3 3 3 12 13
20 28 20 32 17 11 -6z m-1325 -60 c7 0 10 -14 8 -37 -3 -37 -4 -38 -43 -37
-22 0 -61 4 -87 8 l-48 7 0 64 0 63 79 -34 c43 -19 84 -34 91 -34z m-1743 -42
c-2 -13 -4 -3 -4 22 0 25 2 35 4 23 2 -13 2 -33 0 -45z m1731 -64 c12 -2 22
-11 22 -19 0 -12 -11 -14 -60 -8 l-60 6 0 -71 c0 -62 -3 -73 -22 -87 -22 -15
-22 -16 19 -9 52 8 116 -3 110 -19 -5 -14 -71 -12 -128 3 l-36 10 -5 92 c-3
51 -3 98 -1 106 4 10 21 12 72 7 36 -3 76 -8 89 -11z m-1478 -54 c14 -3 26
-14 28 -23 5 -25 -58 -23 -81 3 -9 11 -25 20 -34 20 -10 0 -25 5 -33 10 -16
11 69 4 120 -10z m2840 10 c0 -5 -5 -10 -11 -10 -5 0 -7 5 -4 10 3 6 8 10 11
10 2 0 4 -4 4 -10z m-2495 -115 c400 -26 417 -29 402 -68 -4 -11 -27 -10 -123
4 -66 9 -177 24 -249 33 -210 26 -215 27 -215 38 0 7 19 8 58 4 31 -4 89 -9
127 -11z m38 -82 c-7 -2 -19 -2 -25 0 -7 3 -2 5 12 5 14 0 19 -2 13 -5z m60
-10 c-7 -2 -19 -2 -25 0 -7 3 -2 5 12 5 14 0 19 -2 13 -5z m60 -10 c-7 -2 -19
-2 -25 0 -7 3 -2 5 12 5 14 0 19 -2 13 -5z m60 -10 c-7 -2 -19 -2 -25 0 -7 3
-2 5 12 5 14 0 19 -2 13 -5z"/>
<path d="M2870 3792 c0 -35 18 -44 109 -56 91 -13 92 -13 89 8 -3 23 -66 48
-150 59 -41 6 -48 4 -48 -11z m139 -36 c10 -12 9 -14 -6 -11 -10 2 -21 4 -25
4 -5 1 -8 6 -8 11 0 15 26 12 39 -4z"/>
<path d="M2252 3585 c0 -16 2 -22 5 -12 2 9 2 23 0 30 -3 6 -5 -1 -5 -18z"/>
<path d="M2242 3505 c0 -16 2 -22 5 -12 2 9 2 23 0 30 -3 6 -5 -1 -5 -18z"/>
<path d="M3155 3810 c9 -16 18 -30 21 -30 2 0 -2 14 -11 30 -9 17 -18 30 -21
30 -2 0 2 -13 11 -30z"/>
<path d="M2348 3354 c-15 -8 -32 -24 -39 -35 -6 -12 -12 -93 -14 -192 -3 -119
-1 -153 5 -112 4 33 8 105 9 161 1 122 11 156 54 177 18 9 28 16 22 16 -5 0
-22 -6 -37 -15z"/>
<path d="M2983 2465 c0 -27 2 -38 4 -22 2 15 2 37 0 50 -2 12 -4 0 -4 -28z"/>
<path d="M2992 2360 c0 -19 2 -27 5 -17 2 9 2 25 0 35 -3 9 -5 1 -5 -18z"/>
<path d="M3167 2516 c-9 -14 -17 -38 -16 -53 1 -27 1 -26 9 6 15 63 17 64 201
46 93 -9 197 -14 239 -11 86 7 420 -34 448 -55 16 -12 16 -12 1 5 -12 12 -47
22 -120 32 -57 8 -146 21 -196 29 -75 13 -101 14 -132 4 -39 -12 -50 -11 -357
17 -57 6 -61 4 -77 -20z"/>
<path d="M3211 2458 c-13 -35 7 -66 24 -38 11 17 33 11 28 -8 -10 -40 61 -67
202 -76 43 -4 84 -11 90 -17 7 -8 -6 -9 -45 -5 -89 9 -290 18 -290 13 0 -2 5
-18 11 -36 10 -29 14 -31 44 -25 24 4 35 2 42 -10 6 -12 35 -16 133 -21 69 -4
144 -13 167 -21 23 -9 65 -14 94 -12 48 3 56 6 76 37 32 47 30 96 -7 157 l-31
49 29 -33 c16 -18 34 -48 39 -65 l9 -32 83 -3 c88 -3 111 5 111 40 0 14 5 18
16 14 12 -5 14 -1 8 17 -10 32 -17 34 -128 42 -61 4 -110 13 -124 22 -18 11
-42 13 -100 9 -42 -3 -93 -7 -112 -8 -34 -1 -245 16 -323 27 -32 5 -39 2 -46
-17z m498 -15 c-12 -3 -18 -19 -21 -58 -5 -61 -35 -118 -49 -93 -5 9 1 37 16
74 14 32 25 65 25 72 0 6 10 11 23 11 14 -1 17 -3 6 -6z m-316 -20 c-13 -2
-35 -2 -50 0 -16 2 -5 4 22 4 28 0 40 -2 28 -4z m580 -50 c-7 -2 -19 -2 -25 0
-7 3 -2 5 12 5 14 0 19 -2 13 -5z m-195 -82 c12 -7 5 -9 -26 -8 -23 1 -42 3
-42 5 0 1 8 10 18 20 13 14 19 15 25 5 4 -7 15 -17 25 -22z m-35 -68 c-7 -2
-19 -2 -25 0 -7 3 -2 5 12 5 14 0 19 -2 13 -5z"/>
<path d="M4061 2414 c0 -11 3 -14 6 -6 3 7 2 16 -1 19 -3 4 -6 -2 -5 -13z"/>
<path d="M3162 2395 c0 -16 2 -22 5 -12 2 9 2 23 0 30 -3 6 -5 -1 -5 -18z"/>
<path d="M3172 2340 c0 -14 2 -19 5 -12 2 6 2 18 0 25 -3 6 -5 1 -5 -13z"/>
<path d="M3182 2295 c0 -11 3 -29 8 -40 11 -25 11 1 0 35 -6 20 -8 21 -8 5z"/>
<path d="M4070 2300 c0 -6 -48 -10 -124 -10 -120 0 -124 -1 -129 -22 -2 -13
-7 -30 -11 -38 -5 -13 8 -15 86 -14 122 1 115 0 133 34 9 18 23 30 35 30 11 0
20 7 20 15 0 8 -2 15 -5 15 -3 0 -5 -4 -5 -10z"/>
<path d="M3200 2224 c0 -6 7 -19 16 -30 14 -18 14 -18 3 6 -14 31 -19 36 -19
24z"/>
<path d="M3275 2210 c3 -5 11 -10 17 -10 5 0 19 -11 30 -25 38 -48 64 -54 293
-66 119 -6 248 -9 286 -7 64 3 71 6 109 43 l41 40 -38 7 c-68 12 -224 11 -236
-1 -15 -15 -117 -14 -158 3 -42 17 -354 32 -344 16z"/>
<path d="M3250 2145 c13 -14 26 -25 28 -25 3 0 -5 11 -18 25 -13 14 -26 25
-28 25 -3 0 5 -11 18 -25z"/>
<path d="M2840 1941 c0 -15 15 -24 64 -41 73 -24 69 -15 82 -175 3 -44 9 -84
12 -90 4 -5 7 -17 9 -25 3 -23 31 -39 128 -69 140 -45 153 -27 101 141 -19 62
-39 125 -45 140 -6 15 -8 34 -5 42 4 10 -15 18 -73 31 -43 9 -116 28 -162 41
-101 29 -111 29 -111 5z m223 -56 c32 -7 64 -19 72 -25 8 -6 24 -42 36 -78 12
-37 32 -93 45 -124 28 -66 31 -106 9 -114 -9 -4 -37 -1 -63 5 -51 13 -158 59
-151 65 2 2 42 -9 89 -25 47 -16 93 -29 103 -29 31 0 31 29 -1 98 -16 37 -37
90 -46 119 -15 45 -21 52 -54 62 l-37 10 40 -5 c62 -8 22 12 -52 26 -35 7 -66
16 -69 21 -7 12 10 11 79 -6z m-9 -220 c9 -7 46 -21 82 -31 35 -9 64 -21 64
-27 0 -5 -6 -7 -14 -4 -8 3 -34 11 -58 17 -100 27 -112 46 -123 185 -5 67 -4
66 13 -29 12 -67 24 -102 36 -111z m-1 188 c-7 -2 -19 -2 -25 0 -7 3 -2 5 12
5 14 0 19 -2 13 -5z m74 -179 c-3 -3 -12 -4 -19 -1 -8 3 -5 6 6 6 11 1 17 -2
13 -5z m47 -26 c-3 -4 -11 -5 -20 -1 -11 4 -12 8 -3 20 10 11 14 11 20 1 4 -6
6 -15 3 -20z"/>
<path d="M4062 1720 c0 -19 2 -27 5 -17 2 9 2 25 0 35 -3 9 -5 1 -5 -18z"/>
<path d="M4052 1655 c0 -16 2 -22 5 -12 2 9 2 23 0 30 -3 6 -5 -1 -5 -18z"/>
<path d="M3526 1660 c-66 -5 -82 -10 -97 -29 -34 -41 -19 -143 21 -154 20 -5
408 18 478 29 48 7 62 25 62 79 0 25 -8 43 -25 60 -24 25 -26 25 -192 23 -92
0 -203 -4 -247 -8z m332 -37 c-27 -2 -69 -2 -95 0 -27 2 -5 3 47 3 52 0 74 -1
48 -3z m-231 -10 c-20 -2 -52 -2 -70 0 -17 2 0 4 38 4 39 0 53 -2 32 -4z m290
-15 c-3 -8 -6 -5 -6 6 -1 11 2 17 5 13 3 -3 4 -12 1 -19z"/>
<path d="M4127 1600 c-21 -16 -44 -31 -50 -33 -7 -2 -9 -8 -5 -12 8 -9 66 26
93 55 26 29 7 24 -38 -10z"/>
<path d="M2985 1461 c-3 -2 -5 -30 -5 -62 0 -84 11 -91 119 -84 162 11 163 11
192 58 l26 43 -164 25 c-90 14 -166 23 -168 20z m122 -67 c7 -19 -20 -49 -36
-40 -12 8 -15 39 -4 49 12 12 33 7 40 -9z m73 -14 c0 -5 -5 -10 -11 -10 -5 0
-7 5 -4 10 3 6 8 10 11 10 2 0 4 -4 4 -10z"/>
<path d="M3168 1453 c7 -3 16 -2 19 1 4 3 -2 6 -13 5 -11 0 -14 -3 -6 -6z"/>
<path d="M3228 1443 c6 -2 18 -2 25 0 6 3 1 5 -13 5 -14 0 -19 -2 -12 -5z"/>
<path d="M3650 1428 c-64 -7 -98 -14 -103 -24 -6 -10 -27 -14 -68 -14 -55 0
-64 -3 -90 -31 -16 -17 -29 -35 -29 -40 0 -5 39 -6 88 -3 56 4 96 3 109 -4 27
-15 274 12 288 31 6 8 37 17 69 21 71 9 96 23 96 54 0 18 -4 21 -22 18 -59
-12 -138 -15 -138 -6 0 12 -67 11 -200 -2z m190 -20 c0 -13 -3 -33 -6 -44 -6
-23 -14 -25 -181 -40 l-73 -7 0 46 0 45 88 7 c48 3 94 8 102 9 8 2 27 4 43 5
22 1 27 -3 27 -21z"/>
<path d="M4100 1380 c-20 -6 -21 -8 -5 -8 11 0 31 4 45 8 20 6 21 8 5 8 -11 0
-31 -4 -45 -8z"/>
<path d="M3203 1293 c20 -2 54 -2 75 0 20 2 3 4 -38 4 -41 0 -58 -2 -37 -4z"/>
<path d="M3083 1283 c15 -2 37 -2 50 0 12 2 0 4 -28 4 -27 0 -38 -2 -22 -4z"/>
<path d="M1960 1758 c9 -11 4 -245 -6 -295 -8 -40 -34 -44 -149 -27 -58 8
-113 14 -123 12 -9 -2 40 -12 111 -23 l127 -18 24 22 c22 20 24 32 31 168 6
126 5 147 -9 159 -9 8 -12 9 -6 2z"/>
<path d="M1163 1635 c0 -44 2 -61 4 -37 2 23 2 59 0 80 -2 20 -4 1 -4 -43z"/>
<path d="M1548 1463 c6 -2 18 -2 25 0 6 3 1 5 -13 5 -14 0 -19 -2 -12 -5z"/>
<path d="M1608 1453 c12 -2 30 -2 40 0 9 3 -1 5 -23 4 -22 0 -30 -2 -17 -4z"/>
<path d="M2314 1685 c-14 -10 -16 -17 -8 -25 13 -13 44 -3 44 15 0 21 -15 26
-36 10z"/>
<path d="M2390 1639 c0 -24 23 -21 28 4 2 10 -3 17 -12 17 -10 0 -16 -9 -16
-21z"/>
<path d="M2309 1617 c-36 -27 -54 -100 -40 -159 5 -22 5 -38 0 -38 -5 0 -9
-11 -9 -25 0 -16 6 -25 15 -25 8 0 15 5 15 12 0 6 13 -1 29 -16 63 -60 116 0
109 121 -3 63 -2 69 14 65 13 -3 18 1 18 16 0 27 -21 40 -33 21 -8 -13 -14
-10 -37 13 -30 30 -55 35 -81 15z"/>
<path d="M2230 1540 c0 -11 5 -20 10 -20 6 0 10 9 10 20 0 11 -4 20 -10 20 -5
0 -10 -9 -10 -20z"/>
<path d="M2450 1480 c0 -20 5 -30 15 -30 10 0 15 10 15 30 0 20 -5 30 -15 30
-10 0 -15 -10 -15 -30z"/>
<path d="M2230 1460 c0 -11 5 -20 10 -20 6 0 10 9 10 20 0 11 -4 20 -10 20 -5
0 -10 -9 -10 -20z"/>
<path d="M2433 1394 c-7 -18 11 -39 26 -30 17 11 13 46 -4 46 -9 0 -18 -7 -22
-16z"/>
<path d="M2279 1344 c-10 -13 -10 -17 1 -24 17 -10 30 -4 30 15 0 22 -16 26
-31 9z"/>
<path d="M2394 1325 c-3 -8 -3 -19 0 -24 10 -16 36 -1 36 20 0 22 -28 26 -36
4z"/>
<path d="M2326 1304 c-7 -19 1 -34 19 -34 15 0 24 19 18 38 -6 17 -30 15 -37
-4z"/>
<path d="M2643 1420 c0 -25 2 -35 4 -22 2 12 2 32 0 45 -2 12 -4 2 -4 -23z"/>
</g>
</svg>