<svg width="100" height="100" viewBox="0 0 100 100" fill="none" xmlns="http://www.w3.org/2000/svg">
<path d="M69.773 64.3996C69.773 62.6438 69.773 15.9654 69.773 13.6221C69.773 6.11074 63.6618 0 56.1507 0C48.6409 0 42.5312 6.11074 42.5312 13.6219C42.5312 16.1721 42.5312 62.7152 42.5312 64.3994C28.6382 76.8912 37.5027 100 56.1509 100C74.7913 100 83.6661 76.893 69.773 64.3996ZM62.456 44.7195H49.8484V13.6219C49.8484 10.1453 52.6757 7.31699 56.1507 7.31699C59.6273 7.31699 62.4558 10.1453 62.4558 13.6219V44.7195H62.456Z" fill="black"/>
<path d="M33.2485 46.3414H27.0993C25.0788 46.3414 23.4407 47.9795 23.4407 50C23.4407 52.0205 25.0788 53.6586 27.0993 53.6586H33.2485C35.269 53.6586 36.9071 52.0205 36.9071 50C36.9069 47.9795 35.2688 46.3414 33.2485 46.3414Z" fill="black"/>
<path d="M33.2485 34.2902H27.0993C25.0788 34.2902 23.4407 35.9283 23.4407 37.9488C23.4407 39.9693 25.0788 41.6074 27.0993 41.6074H33.2485C35.269 41.6074 36.9071 39.9693 36.9071 37.9488C36.9069 35.9283 35.2688 34.2902 33.2485 34.2902Z" fill="black"/>
<path d="M33.2485 22.2391H27.0993C25.0788 22.2391 23.4407 23.8771 23.4407 25.8977C23.4407 27.9182 25.0788 29.5562 27.0993 29.5562H33.2485C35.269 29.5562 36.9071 27.9182 36.9071 25.8977C36.9071 23.8771 35.2688 22.2391 33.2485 22.2391Z" fill="black"/>
</svg>
