<svg width="100" height="84" viewBox="0 0 100 84" fill="none" xmlns="http://www.w3.org/2000/svg">
<path d="M54.1666 29.5C54.1666 28.395 53.7276 27.3352 52.9462 26.5538C52.1648 25.7724 51.105 25.3334 49.9999 25.3334H12.4999C11.3948 25.3334 10.335 25.7724 9.55364 26.5538C8.77224 27.3352 8.33325 28.395 8.33325 29.5V83.6667H54.1666V29.5ZM24.9999 75.3334H16.6666V67H24.9999V75.3334ZM24.9999 58.6667H16.6666V50.3334H24.9999V58.6667ZM24.9999 42H16.6666V33.6667H24.9999V42ZM45.8333 75.3334H33.3333V67H45.8333V75.3334ZM45.8333 58.6667H33.3333V50.3334H45.8333V58.6667ZM45.8333 42H33.3333V33.6667H45.8333V42ZM60.4166 17H24.9999V4.50004C24.9999 3.39497 25.4389 2.33516 26.2203 1.55376C27.0017 0.772361 28.0615 0.333374 29.1666 0.333374H70.8332C71.9383 0.333374 72.9981 0.772361 73.7795 1.55376C74.5609 2.33516 74.9999 3.39497 74.9999 4.50004V33.6667H62.4999V19.0834C62.4999 18.5308 62.2804 18.0009 61.8897 17.6102C61.499 17.2195 60.9691 17 60.4166 17ZM91.6666 46.1667V83.6667H81.2499V67H72.9166V83.6667H62.4999V46.1667C62.4999 45.0616 62.9389 44.0018 63.7203 43.2204C64.5017 42.439 65.5615 42 66.6666 42H87.4999C88.605 42 89.6648 42.439 90.4462 43.2204C91.2276 44.0018 91.6666 45.0616 91.6666 46.1667Z" fill="black"/>
</svg>
