<svg width="100" height="100" viewBox="0 0 100 100" fill="none" xmlns="http://www.w3.org/2000/svg">
<g clip-path="url(#clip0_164_74)">
<path d="M99.8635 70.3367C99.3398 68.545 97.4626 67.5169 95.6709 68.0407L44.9899 82.8556C43.1663 80.2551 40.2038 78.5094 36.8316 78.3528L17.2567 9.92789C17.0101 9.06584 16.4312 8.33737 15.6476 7.90229C14.8639 7.46721 13.9394 7.36121 13.0774 7.60782L2.45131 10.6477C0.65664 11.1612 -0.382252 13.0324 0.131245 14.8271C0.644743 16.6217 2.51594 17.6598 4.31061 17.1471L11.687 15.0369L30.3332 80.217C27.5775 82.126 25.768 85.3084 25.768 88.9072C25.768 94.7339 30.5082 99.4741 36.3348 99.4741C42.0152 99.4741 46.661 94.9681 46.8906 89.3431L97.5676 74.5296C99.3592 74.0055 100.387 72.1287 99.8635 70.3367ZM36.3348 92.7137C34.2357 92.7137 32.5281 91.0061 32.5281 88.907C32.5281 86.8078 34.2357 85.1002 36.3348 85.1002C38.434 85.1002 40.1416 86.8078 40.1416 88.907C40.1416 91.0061 38.434 92.7137 36.3348 92.7137Z" fill="black"/>
<path d="M30.1903 41.845C30.4372 42.7133 31.2384 43.3198 32.1394 43.3198C32.3259 43.3198 32.5128 43.2936 32.695 43.2419L74.3124 31.4163C74.8335 31.2682 75.2658 30.9261 75.5295 30.4529C75.7931 29.9797 75.8567 29.4321 75.7088 28.9111L68.0623 2.00099C67.8154 1.13272 67.0142 0.526207 66.1135 0.526207C65.9269 0.526207 65.7398 0.552436 65.5575 0.604354L23.9402 12.4302C23.4191 12.5781 22.9867 12.9204 22.7228 13.3937C22.4592 13.8669 22.3954 14.4142 22.5435 14.9355L30.1903 41.845ZM40.6268 17.9529L53.9239 14.1746C54.1064 14.1224 54.2938 14.0962 54.4804 14.0962C55.3809 14.0962 56.1821 14.7027 56.429 15.5709C56.7345 16.6466 56.1082 17.7704 55.0326 18.0762L41.7357 21.8549C41.5535 21.9068 41.3664 21.933 41.1798 21.933C40.2788 21.933 39.4776 21.3268 39.2307 20.4585C38.9249 19.3826 39.5511 18.2588 40.6268 17.9529Z" fill="black"/>
<path d="M75.1529 34.3738L33.5359 46.1993C33.0148 46.3475 32.5824 46.6896 32.3188 47.1625C32.0549 47.6357 31.9911 48.1833 32.1392 48.7044L39.786 75.615C40.0329 76.4832 40.8343 77.0895 41.7351 77.0895C41.9216 77.0895 42.1085 77.0632 42.2907 77.0113L83.9084 65.1855C84.4294 65.0373 84.8618 64.6952 85.1254 64.2223C85.3894 63.7488 85.4532 63.2015 85.305 62.6805L77.6582 35.7699C77.4116 34.9019 76.6101 34.2953 75.7092 34.2953C75.5226 34.2956 75.3355 34.3221 75.1529 34.3738ZM65.8448 50.8822C65.5812 51.3554 65.1488 51.6975 64.6277 51.8456L51.3309 55.624C51.1489 55.6756 50.9618 55.7021 50.7752 55.7021C49.8745 55.7021 49.073 55.0956 48.8261 54.2274C48.678 53.7063 48.7418 53.1587 49.0057 52.6855C49.2693 52.2123 49.7017 51.8702 50.2228 51.7221L63.5193 47.9437C63.7019 47.8918 63.889 47.8656 64.0756 47.8656C64.9763 47.8656 65.7778 48.4721 66.0244 49.3403C66.1726 49.8614 66.1087 50.409 65.8448 50.8822Z" fill="black"/>
</g>
<defs>
<clipPath id="clip0_164_74">
<rect width="100" height="100" fill="white"/>
</clipPath>
</defs>
</svg>
