<svg width="100" height="100" viewBox="0 0 100 100" fill="none" xmlns="http://www.w3.org/2000/svg">
<path d="M25 91.6667H75C78.3152 91.6667 81.4946 90.3497 83.8388 88.0055C86.183 85.6613 87.5 82.4819 87.5 79.1667V29.1667C87.5 26.9565 86.622 24.8369 85.0592 23.2741C83.4964 21.7113 81.3768 20.8333 79.1667 20.8333H70.8333V12.5C70.8333 11.3949 70.3943 10.3351 69.6129 9.55372C68.8315 8.77232 67.7717 8.33334 66.6667 8.33334C65.5616 8.33334 64.5018 8.77232 63.7204 9.55372C62.939 10.3351 62.5 11.3949 62.5 12.5V20.8333H37.5V12.5C37.5 11.3949 37.061 10.3351 36.2796 9.55372C35.4982 8.77232 34.4384 8.33334 33.3333 8.33334C32.2283 8.33334 31.1685 8.77232 30.3871 9.55372C29.6057 10.3351 29.1667 11.3949 29.1667 12.5V20.8333H20.8333C18.6232 20.8333 16.5036 21.7113 14.9408 23.2741C13.378 24.8369 12.5 26.9565 12.5 29.1667V79.1667C12.5 82.4819 13.817 85.6613 16.1612 88.0055C18.5054 90.3497 21.6848 91.6667 25 91.6667ZM20.8333 52.0833C20.8333 51.5308 21.0528 51.0009 21.4435 50.6102C21.8342 50.2195 22.3641 50 22.9167 50H77.0833C77.6359 50 78.1658 50.2195 78.5565 50.6102C78.9472 51.0009 79.1667 51.5308 79.1667 52.0833V79.1667C79.1667 80.2717 78.7277 81.3315 77.9463 82.1129C77.1649 82.8943 76.1051 83.3333 75 83.3333H25C23.8949 83.3333 22.8351 82.8943 22.0537 82.1129C21.2723 81.3315 20.8333 80.2717 20.8333 79.1667V52.0833Z" fill="black"/>
</svg>
